<?xml version="1.0" encoding="utf-8"?><svg xmlns="http://www.w3.org/2000/svg" xmlns:xlink="http://www.w3.org/1999/xlink"><symbol viewBox="0 0 18.94 16.969" id="cart-icon" xmlns="http://www.w3.org/2000/svg">
    <defs>
        <style>.acls-1 {
        fill: #243f4d;
        fill-rule: evenodd;
      }</style>
    </defs>
    <path class="acls-1" d="M1721.53,85.978a2.074,2.074,0,1,1,0-4.147h0a2.057,2.057,0,0,1,1.46.6,2.031,2.031,0,0,1,.61,1.466A2.07,2.07,0,0,1,1721.53,85.978Zm0-2.963h0a0.889,0.889,0,1,0,.34,1.71,0.9,0.9,0,0,0,.55-0.824,0.92,0.92,0,0,0-.26-0.628A0.9,0.9,0,0,0,1721.53,83.014Zm8.39,2.963a2.045,2.045,0,0,1-1.46-.606,2.068,2.068,0,0,1,1.46-3.541h0a1.954,1.954,0,0,1,1.47.6,2.085,2.085,0,0,1-.67,3.383A2.1,2.1,0,0,1,1729.92,85.978Zm0-2.963h0a0.979,0.979,0,0,0-.82.549,0.887,0.887,0,0,0,1.16,1.162,0.891,0.891,0,0,0,.29-1.453A0.9,0.9,0,0,0,1729.92,83.014Zm-11.27.164a0.561,0.561,0,0,1-.25-0.056,0.59,0.59,0,0,1-.29-0.787,3.686,3.686,0,0,1,3.05-2.151l-1.05-5.391a0.591,0.591,0,1,1,1.16-.228l1.09,5.578h9.43l1.8-6.771h-13.3a4.346,4.346,0,0,1-4.28-3.693,0.587,0.587,0,0,1,.49-0.673,0.6,0.6,0,0,1,.68.5,3.16,3.16,0,0,0,3.11,2.682h14.07a0.581,0.581,0,0,1,.47.232,0.594,0.594,0,0,1,.11.513l-2.13,7.956a0.59,0.59,0,0,1-.57.44h-10.36a0.035,0.035,0,0,0-.02,0,2.66,2.66,0,0,0-2.68,1.51A0.586,0.586,0,0,1,1718.65,83.178Z" transform="translate(-1716 -69)"/>
</symbol><symbol viewBox="0 0 18 16" id="heart-icon" xmlns="http://www.w3.org/2000/svg">
    <path fill-rule="evenodd" clip-rule="evenodd" d="M8.9298 15.5233C8.8346 15.5233 8.7393 15.5053 8.6504 15.467C8.297 15.3174 0 11.7175 0 4.7074C0.0912 2.0576 2.207 0 4.8175 0C6.561 0 8.0836 0.918 8.9298 2.3099C9.7765 0.918 11.2992 0 13.042 0C15.6514 0 17.7672 2.0576 17.859 4.6835C17.859 11.7175 9.562 15.3174 9.2097 15.467C9.1203 15.5053 9.025 15.5233 8.9298 15.5233ZM4.8175 1.385C2.9712 1.385 1.4745 2.8547 1.4097 4.7313C1.4101 10.1384 7.5346 13.3937 8.9298 14.0657C10.3251 13.3937 16.45 10.1357 16.45 4.7074C16.3845 2.8547 14.887 1.385 13.042 1.385C11.197 1.385 9.6998 2.8547 9.6342 4.7313C9.6217 5.1038 9.3094 5.4002 8.9298 5.4002C8.5494 5.4002 8.2379 5.1038 8.2252 4.7313C8.1604 2.8547 6.6636 1.385 4.8175 1.385Z"/>
</symbol><symbol viewBox="0 0 50.125 38.875" id="logo-icon" xmlns="http://www.w3.org/2000/svg">
    <defs>
        <style>.ccls-1 {
        fill: #a3bbc8;
        fill-rule: evenodd;
      }</style>
    </defs>
    <path id="cPath_324" data-name="Path 324" class="ccls-1" d="M76.157,79.674a1.13,1.13,0,0,0,.622.387l48.041,9.8a1.137,1.137,0,0,0,.908-0.212,0.874,0.874,0,0,0,.31-0.8h0l-6.251-37.079a0.962,0.962,0,0,0-.449-0.645,1.337,1.337,0,0,0-.965-0.051L83.179,65.118a0.9,0.9,0,0,0-.507.452c-0.171.325-6.494,13.076-6.583,13.257A0.806,0.806,0,0,0,76.157,79.674Zm45.586,6.436-20.05-11.145,10.339-2.159Zm-37.7-18.883L96.569,74.21,78.736,77.925Zm1.662-1.172L117.24,53.468l-5.558,17.587L99.311,73.639ZM123.363,85.05l-9.779-13.4,4.9-15.52Zm-3.886,1.9L81.426,79.187l17.523-3.65Z" transform="translate(-76 -51)"/>
</symbol><symbol viewBox="0 0 20.03 20.031" id="more-icon" xmlns="http://www.w3.org/2000/svg">
    <defs>
        <style>.dcls-1 {
        fill: #fff;
        fill-rule: evenodd;
      }</style>
    </defs>
    <path class="dcls-1" d="M1813.15,67.881a2.146,2.146,0,1,1,2.14-2.145A2.145,2.145,0,0,1,1813.15,67.881Zm0,7.869a2.146,2.146,0,1,1,2.14-2.147A2.146,2.146,0,0,1,1813.15,75.75Zm0,7.868a2.146,2.146,0,1,1,2.14-2.146A2.145,2.145,0,0,1,1813.15,83.618Zm7.86-15.737a2.146,2.146,0,1,1,2.15-2.145A2.143,2.143,0,0,1,1821.01,67.881Zm0,7.869a2.146,2.146,0,1,1,2.15-2.147A2.144,2.144,0,0,1,1821.01,75.75Zm0,7.868a2.146,2.146,0,1,1,2.15-2.146A2.143,2.143,0,0,1,1821.01,83.618Zm7.87-15.737a2.146,2.146,0,1,1,2.15-2.145A2.143,2.143,0,0,1,1828.88,67.881Zm0,7.869a2.146,2.146,0,1,1,2.15-2.147A2.144,2.144,0,0,1,1828.88,75.75Zm0,7.868a2.146,2.146,0,1,1,2.15-2.146A2.143,2.143,0,0,1,1828.88,83.618Z" transform="translate(-1811 -63.594)"/>
</symbol><symbol viewBox="0 0 15.28 15.281" id="search-icon" xmlns="http://www.w3.org/2000/svg">
    <defs>
        <style>.ecls-1 {
        fill: #243f4d;
        fill-rule: evenodd;
      }</style>
    </defs>
    <path id="eicon" class="ecls-1" d="M1547.7,72.076a0.617,0.617,0,0,1,.75.484,2.585,2.585,0,0,0,.78,1.489,3.039,3.039,0,0,0,1.49.777,0.635,0.635,0,0,1,.49.743,0.649,0.649,0,0,1-.72.515,4.212,4.212,0,0,1-2.14-1.131,4.166,4.166,0,0,1-1.13-2.135A0.6,0.6,0,0,1,1547.7,72.076Zm3.28-6.08a6.267,6.267,0,0,1,6.28,6.256,6.137,6.137,0,0,1-.57,2.6l2.34,2.036c1.7,1.746.74,3.266,0.29,3.717-0.42.453-1.99,1.414-3.73-.292l-2.06-2.35A6.261,6.261,0,1,1,1550.98,66Zm5.55,13.516a1.352,1.352,0,0,0,1.88.226,1.313,1.313,0,0,0-.23-1.874l-2.16-1.88a6.222,6.222,0,0,1-1.37,1.34Zm-5.55-2.312a4.948,4.948,0,1,0-4.97-4.948A4.962,4.962,0,0,0,1550.98,77.2Z" transform="translate(-1544.72 -66)"/>
</symbol></svg>