<?xml version="1.0" encoding="utf-8"?><svg xmlns="http://www.w3.org/2000/svg" xmlns:xlink="http://www.w3.org/1999/xlink"><symbol viewBox="0 0 22 9" id="arrow-icon" xmlns="http://www.w3.org/2000/svg">
    <path fill-rule="evenodd" d="M535.3,654.472h16.948l-0.1,2.857a0.292,0.292,0,0,0,0,.41l0.172,0.172a0.28,0.28,0,0,0,.2.086,0.285,0.285,0,0,0,.2-0.084l4.193-4.211A0.292,0.292,0,0,0,557,653.5a0.283,0.283,0,0,0-.084-0.2l-4.193-4.213a0.289,0.289,0,0,0-.407,0l-0.172.173a0.287,0.287,0,0,0-.084.2,0.278,0.278,0,0,0,.084.2l0.113,2.865H535.292a0.3,0.3,0,0,0-.292.295v1.37A0.292,0.292,0,0,0,535.3,654.472Z" transform="translate(-535 -649)"/>
</symbol><symbol viewBox="0 0 5.188 9.531" id="arrow-product-icon" xmlns="http://www.w3.org/2000/svg">
    <defs>
        <style>.bcls-1 {
        fill: #243f4d;
        fill-rule: evenodd;
      }</style>
    </defs>
    <path class="bcls-1" d="M617.472,457.538a0.463,0.463,0,0,0,.331-0.14l4.221-4.265,0.013-.013a0.522,0.522,0,0,0,.095-0.144h0a0.541,0.541,0,0,0,.045-0.217v0a0.528,0.528,0,0,0-.044-0.211h0a0.525,0.525,0,0,0-.1-0.147,0.043,0.043,0,0,0-.011-0.012l-4.221-4.265a0.461,0.461,0,0,0-.68.019,0.539,0.539,0,0,0,.018.724l3.857,3.9-3.857,3.9a0.539,0.539,0,0,0-.018.724A0.467,0.467,0,0,0,617.472,457.538Z" transform="translate(-617 -448)"/>
</symbol><symbol viewBox="0 0 41.78 40.406" id="awards-icon" xmlns="http://www.w3.org/2000/svg">
    <defs>
        <style>.ccls-1 {
        fill: #a3bbc8;
        fill-rule: evenodd;
      }</style>
    </defs>
    <path class="ccls-1" d="M1399.9,951.7a8.516,8.516,0,0,1,.83-3.671l-13.22-20.446a0.919,0.919,0,0,1,.11-1.139l6.32-6.418a0.9,0.9,0,0,1,.63-0.266h27.35a0.882,0.882,0,0,1,.63.266l6.32,6.418a0.906,0.906,0,0,1,.11,1.139l-13.22,20.447a8.508,8.508,0,0,1,.83,3.67A8.346,8.346,0,1,1,1399.9,951.7Zm1.79,0a6.556,6.556,0,1,0,6.56-6.661A6.617,6.617,0,0,0,1401.69,951.7Zm8.55-8.23a8.324,8.324,0,0,1,4.47,2.884l11.87-18.362h-6.34Zm-8.46,2.883a8.354,8.354,0,0,1,4.48-2.883l-10.01-15.478h-6.34Zm6.45-3.127h0.03l9.85-15.234h-19.73Zm-17.82-17.047h35.67l-4.53-4.606h-26.61Zm17.25,28.919v-4.9h-0.53a0.907,0.907,0,0,1,0-1.814h1.42a0.9,0.9,0,0,1,.89.908v5.808A0.89,0.89,0,1,1,1407.66,955.093Z" transform="translate(-1387.34 -919.75)"/>
</symbol><symbol viewBox="0 0 18.94 16.969" id="cart-icon" xmlns="http://www.w3.org/2000/svg">
    <defs>
        <style>.dcls-1 {
        fill: #243f4d;
        fill-rule: evenodd;
      }</style>
    </defs>
    <path class="dcls-1" d="M1721.53,85.978a2.074,2.074,0,1,1,0-4.147h0a2.057,2.057,0,0,1,1.46.6,2.031,2.031,0,0,1,.61,1.466A2.07,2.07,0,0,1,1721.53,85.978Zm0-2.963h0a0.889,0.889,0,1,0,.34,1.71,0.9,0.9,0,0,0,.55-0.824,0.92,0.92,0,0,0-.26-0.628A0.9,0.9,0,0,0,1721.53,83.014Zm8.39,2.963a2.045,2.045,0,0,1-1.46-.606,2.068,2.068,0,0,1,1.46-3.541h0a1.954,1.954,0,0,1,1.47.6,2.085,2.085,0,0,1-.67,3.383A2.1,2.1,0,0,1,1729.92,85.978Zm0-2.963h0a0.979,0.979,0,0,0-.82.549,0.887,0.887,0,0,0,1.16,1.162,0.891,0.891,0,0,0,.29-1.453A0.9,0.9,0,0,0,1729.92,83.014Zm-11.27.164a0.561,0.561,0,0,1-.25-0.056,0.59,0.59,0,0,1-.29-0.787,3.686,3.686,0,0,1,3.05-2.151l-1.05-5.391a0.591,0.591,0,1,1,1.16-.228l1.09,5.578h9.43l1.8-6.771h-13.3a4.346,4.346,0,0,1-4.28-3.693,0.587,0.587,0,0,1,.49-0.673,0.6,0.6,0,0,1,.68.5,3.16,3.16,0,0,0,3.11,2.682h14.07a0.581,0.581,0,0,1,.47.232,0.594,0.594,0,0,1,.11.513l-2.13,7.956a0.59,0.59,0,0,1-.57.44h-10.36a0.035,0.035,0,0,0-.02,0,2.66,2.66,0,0,0-2.68,1.51A0.586,0.586,0,0,1,1718.65,83.178Z" transform="translate(-1716 -69)"/>
</symbol><symbol viewBox="0 0 53.75 36.44" id="delivery-icon" xmlns="http://www.w3.org/2000/svg">
    <defs>
        <style>.ecls-1, .ecls-2 {
        fill: #a3bbc8;
      }.ecls-1 {
        opacity: 0.34;
      }.ecls-2 {
        fill-rule: evenodd;
      }</style>
    </defs>
    <circle class="ecls-1" cx="43.938" cy="26.645" r="9.812"/>
    <path id="edelivery-truck" class="ecls-2" d="M812.816,1025.33H806.69a0.79,0.79,0,0,0,0,1.58h6.126A0.79,0.79,0,0,0,812.816,1025.33Zm0.524,11.01h-5.6a0.785,0.785,0,1,0,0,1.57h5.6A0.785,0.785,0,1,0,813.34,1036.34Zm-2.094-4.72H804.6a0.79,0.79,0,0,0,0,1.58h6.65A0.79,0.79,0,0,0,811.246,1031.62Zm0,11.01H810.6a0.785,0.785,0,1,0,0,1.57h0.644A0.785,0.785,0,1,0,811.246,1042.63Zm-3.263,0H804.6a0.785,0.785,0,1,0,0,1.57h3.387A0.785,0.785,0,1,0,807.983,1042.63Zm36.86-19.86h-6.657v-1.42a0.784,0.784,0,0,0-.786-0.78H825.225a0.785,0.785,0,1,0,0,1.57h11.39v17.22a0.786,0.786,0,1,0,1.571,0v-15.02h6.657a6.519,6.519,0,0,1,6.509,6.52v13.29h-2a4.974,4.974,0,0,0-9.824,0h-1.345v-1.12a0.786,0.786,0,1,0-1.571,0v1.12h-8.336a4.974,4.974,0,0,0-9.823,0h-1.634v-22.01h5.261a0.785,0.785,0,1,0,0-1.57h-6.046a0.783,0.783,0,0,0-.785.78v23.59a0.791,0.791,0,0,0,.785.79h2.419a4.974,4.974,0,0,0,9.823,0h11.252a4.974,4.974,0,0,0,9.824,0h2.782a0.791,0.791,0,0,0,.785-0.79v-14.08A8.094,8.094,0,0,0,844.843,1022.77Zm-21.475,25.58a3.41,3.41,0,1,1,3.4-3.41A3.411,3.411,0,0,1,823.368,1048.35Zm21.075,0a3.411,3.411,0,0,1-3.4-3.41h0A3.4,3.4,0,1,1,844.443,1048.35Zm0.4-22.44h-4.3a0.791,0.791,0,0,0-.785.79v7.39a0.791,0.791,0,0,0,.785.79H849a0.792,0.792,0,0,0,.786-0.79v-3.23A4.949,4.949,0,0,0,844.843,1025.91Zm3.367,7.39h-6.882v-5.81h3.515a3.371,3.371,0,0,1,3.367,3.37v2.44Zm-24.842,9.61a2.03,2.03,0,1,0,2.024,2.03A2.029,2.029,0,0,0,823.368,1042.91Zm0,2.49a0.46,0.46,0,0,1-.455-0.46,0.455,0.455,0,0,1,.909,0A0.46,0.46,0,0,1,823.368,1045.4Zm21.075-2.49a2.03,2.03,0,1,0,2.025,2.03A2.03,2.03,0,0,0,844.443,1042.91Zm0,2.49a0.46,0.46,0,0,1-.454-0.46,0.454,0.454,0,0,1,.908,0A0.46,0.46,0,0,1,844.443,1045.4Zm4.552-8.37a0.783,0.783,0,0,0-.785.78v1.99a0.786,0.786,0,1,0,1.571,0v-1.99A0.784,0.784,0,0,0,849,1037.03Z" transform="translate(-803.812 -1020.56)"/>
</symbol><symbol viewBox="0 0 22.66 14.38" id="google-plus-icon" xmlns="http://www.w3.org/2000/svg">
    <defs>
        <style>.fcls-1 {
        fill: #888;
        fill-rule: evenodd;
      }</style>
    </defs>
    <path id="fUnion_6" data-name="Union 6" class="fcls-1" d="M1452.75,1960.35a7.121,7.121,0,0,1-6.59-5.65,6.6,6.6,0,0,1-.14-1.93,7.277,7.277,0,0,1,5.49-6.56,5.282,5.282,0,0,1,1.18-.19c0.23-.01.46-0.02,0.69-0.02a6.786,6.786,0,0,1,3.4.93,9.386,9.386,0,0,1,1.27.93c-0.72.71-1.41,1.4-2.11,2.09a3.914,3.914,0,0,0-2.1-1.02,4.259,4.259,0,0,0-.61-0.04,4.307,4.307,0,0,0-4.14,3.35,3.817,3.817,0,0,0-.1,1.3,4.307,4.307,0,0,0,2.93,3.74,4.472,4.472,0,0,0,1.26.19c0.1,0,.2-0.01.3-0.01a4.2,4.2,0,0,0,2.09-.67,3.314,3.314,0,0,0,1.43-2.17h-3.85c0-.09.02-1.89,0.02-2.76l0.01-.12h6.76a7.773,7.773,0,0,1-1.28,6.05,6.273,6.273,0,0,1-3.55,2.32,7.539,7.539,0,0,1-1.94.25C1453.03,1960.36,1452.89,1960.36,1452.75,1960.35Zm13.33-4.05h-1.89v-0.07l0.02-2.43h-2.51v-0.08l0.02-1.82v-0.07h2.5l0.02-2.43v-0.07h1.96v0.07l-0.02,2.43h2.51v0.07l-0.01,1.82v0.08h-2.51l-0.02,2.43v0.07h-0.07Z" transform="translate(-1446.03 -1946)"/>
</symbol><symbol viewBox="0 0 18 16" id="heart-icon" xmlns="http://www.w3.org/2000/svg">
    <path fill-rule="evenodd" clip-rule="evenodd" d="M8.9298 15.5233C8.8346 15.5233 8.7393 15.5053 8.6504 15.467C8.297 15.3174 0 11.7175 0 4.7074C0.0912 2.0576 2.207 0 4.8175 0C6.561 0 8.0836 0.918 8.9298 2.3099C9.7765 0.918 11.2992 0 13.042 0C15.6514 0 17.7672 2.0576 17.859 4.6835C17.859 11.7175 9.562 15.3174 9.2097 15.467C9.1203 15.5053 9.025 15.5233 8.9298 15.5233ZM4.8175 1.385C2.9712 1.385 1.4745 2.8547 1.4097 4.7313C1.4101 10.1384 7.5346 13.3937 8.9298 14.0657C10.3251 13.3937 16.45 10.1357 16.45 4.7074C16.3845 2.8547 14.887 1.385 13.042 1.385C11.197 1.385 9.6998 2.8547 9.6342 4.7313C9.6217 5.1038 9.3094 5.4002 8.9298 5.4002C8.5494 5.4002 8.2379 5.1038 8.2252 4.7313C8.1604 2.8547 6.6636 1.385 4.8175 1.385Z"/>
</symbol><symbol viewBox="0 0 17.19 17.19" id="instagram-icon" xmlns="http://www.w3.org/2000/svg">
    <defs>
        <style>.hcls-1 {
        fill: #888;
        fill-rule: evenodd;
      }</style>
    </defs>
    <path id="hUnion_5" data-name="Union 5" class="hcls-1" d="M1404.59,1961.94a4.322,4.322,0,0,1-3.43-3.75c-0.23-1.45-.25-8.19.17-9.65a4.387,4.387,0,0,1,3.75-3.35,34.1,34.1,0,0,1,4.3-.19c1.61,0,3.23.04,4.2,0.1a4.724,4.724,0,0,1,3.14,1.28,4.517,4.517,0,0,1,1.38,2.94c0.12,1.35.21,7.74-.19,9.24a4.411,4.411,0,0,1-3.8,3.44,42.333,42.333,0,0,1-4.74.19A29.143,29.143,0,0,1,1404.59,1961.94Zm0.92-15.26a2.958,2.958,0,0,0-2.75,2.59,57.587,57.587,0,0,0-.06,8.69,2.8,2.8,0,0,0,2.12,2.43,27.569,27.569,0,0,0,4.63.25c1.8,0,3.57-.06,4.24-0.13a2.941,2.941,0,0,0,2.75-2.6,61.315,61.315,0,0,0,.11-8.45,2.9,2.9,0,0,0-2.58-2.74,40.212,40.212,0,0,0-4.3-.16C1407.96,1946.56,1406.26,1946.6,1405.51,1946.68Zm-0.32,6.92a4.445,4.445,0,0,1,4.45-4.41,4.37,4.37,0,0,1,4.37,4.41,4.458,4.458,0,0,1-4.45,4.41A4.37,4.37,0,0,1,1405.19,1953.6Zm1.55-.03a2.834,2.834,0,0,0,2.81,2.88h0.02a2.882,2.882,0,0,0,2.88-2.82,2.82,2.82,0,0,0-2.8-2.88h-0.03A2.881,2.881,0,0,0,1406.74,1953.57Zm6.45-4.55a1.029,1.029,0,0,1,1.03-1.03h0.01a1.016,1.016,0,0,1,1.02,1.04,1.035,1.035,0,0,1-1.04,1.02A1.014,1.014,0,0,1,1413.19,1949.02Z" transform="translate(-1401 -1945)"/>
</symbol><symbol viewBox="0 0 50.125 38.875" id="logo-icon" xmlns="http://www.w3.org/2000/svg">
    <defs>
        <style>.icls-1 {
        fill: #a3bbc8;
        fill-rule: evenodd;
      }</style>
    </defs>
    <path id="iPath_324" data-name="Path 324" class="icls-1" d="M76.157,79.674a1.13,1.13,0,0,0,.622.387l48.041,9.8a1.137,1.137,0,0,0,.908-0.212,0.874,0.874,0,0,0,.31-0.8h0l-6.251-37.079a0.962,0.962,0,0,0-.449-0.645,1.337,1.337,0,0,0-.965-0.051L83.179,65.118a0.9,0.9,0,0,0-.507.452c-0.171.325-6.494,13.076-6.583,13.257A0.806,0.806,0,0,0,76.157,79.674Zm45.586,6.436-20.05-11.145,10.339-2.159Zm-37.7-18.883L96.569,74.21,78.736,77.925Zm1.662-1.172L117.24,53.468l-5.558,17.587L99.311,73.639ZM123.363,85.05l-9.779-13.4,4.9-15.52Zm-3.886,1.9L81.426,79.187l17.523-3.65Z" transform="translate(-76 -51)"/>
</symbol><symbol viewBox="0 0 48.03 63.94" id="metrics-award-icon" xmlns="http://www.w3.org/2000/svg">
    <defs>
        <style>.jcls-1 {
        fill: #243f4d;
        fill-rule: evenodd;
      }</style>
    </defs>
    <path class="jcls-1" d="M1413.15,1277.01a17.9,17.9,0,0,0-20.89,3.38,18.376,18.376,0,0,0-1.5,24.05,1.029,1.029,0,0,0,.79.39,0.981,0.981,0,0,0,.62-0.22,1.011,1.011,0,0,0,.17-1.41,16.324,16.324,0,0,1,1.33-21.38,15.907,15.907,0,0,1,18.58-3.01,1,1,0,0,0,1.34-.44A1.018,1.018,0,0,0,1413.15,1277.01Zm7.97,8.05a0.99,0.99,0,0,0-1.34-.44,1.007,1.007,0,0,0-.44,1.35,16.279,16.279,0,0,1-2.98,18.75,15.948,15.948,0,0,1-21.18,1.34,0.992,0.992,0,0,0-1.4.18,1.011,1.011,0,0,0,.17,1.41,17.914,17.914,0,0,0,23.82-1.5A18.316,18.316,0,0,0,1421.12,1285.06Zm-2.58-3.84c-0.24-.28-0.5-0.56-0.77-0.83s-0.54-.53-0.82-0.78a1,1,0,0,0-1.32,1.51c0.25,0.23.49,0.46,0.73,0.7s0.47,0.49.69,0.74a0.991,0.991,0,0,0,.74.34,1.05,1.05,0,0,0,.67-0.25A1.021,1.021,0,0,0,1418.54,1281.22Zm10.04,13.86a3.439,3.439,0,0,0,0-3.58l-1.31-2.17a1.412,1.412,0,0,1-.19-0.96l0.39-2.51a3.427,3.427,0,0,0-1.36-3.31l-2.03-1.5a1.384,1.384,0,0,1-.54-0.81l-0.6-2.47a3.391,3.391,0,0,0-2.5-2.53l-2.45-.6a1.448,1.448,0,0,1-.81-0.54l-1.48-2.06a3.365,3.365,0,0,0-3.28-1.37l-2.48.39a1.374,1.374,0,0,1-.95-0.19l-2.16-1.32a3.326,3.326,0,0,0-3.54,0l-2.15,1.32a1.384,1.384,0,0,1-.95.19l-2.49-.39a3.373,3.373,0,0,0-3.28,1.37l-1.48,2.05a1.393,1.393,0,0,1-.8.55l-2.45.6a3.388,3.388,0,0,0-2.51,2.53l-0.59,2.47a1.415,1.415,0,0,1-.54.81l-2.04,1.5a3.427,3.427,0,0,0-1.36,3.31l0.39,2.51a1.406,1.406,0,0,1-.18.96l-1.32,2.17a3.484,3.484,0,0,0,0,3.58l1.32,2.17a1.406,1.406,0,0,1,.18.96l-0.39,2.51a3.427,3.427,0,0,0,1.36,3.31l2.04,1.5a1.384,1.384,0,0,1,.54.81l0.59,2.47a3.391,3.391,0,0,0,2.5,2.53l1.03,0.25-6.93,15.59a1.043,1.043,0,0,0,.11,1.01,0.981,0.981,0,0,0,.92.4l5.57-.67,3.21,4.65a1.01,1.01,0,0,0,.82.43h0.1a0.994,0.994,0,0,0,.81-0.6l7.08-15.92,0.89,0.55a3.326,3.326,0,0,0,3.54,0l0.93-.57,7.08,15.94a1.009,1.009,0,0,0,.82.6h0.09a1,1,0,0,0,.82-0.43l3.21-4.65,5.57,0.68a1.015,1.015,0,0,0,1.03-1.42l-6.93-15.6,0.99-.24a3.391,3.391,0,0,0,2.5-2.53l0.6-2.47a1.384,1.384,0,0,1,.54-0.81l2.03-1.5a3.427,3.427,0,0,0,1.36-3.31l-0.39-2.51a1.412,1.412,0,0,1,.19-0.96Zm-34.36,34.88-2.54-3.69a0.99,0.99,0,0,0-.94-0.42l-4.41.53,6.31-14.2a1.421,1.421,0,0,1,.3.3l1.48,2.06a3.958,3.958,0,0,0,.47.53l-3.32,7.48a1.005,1.005,0,0,0,.91,1.42,1,1,0,0,0,.91-0.6l3.31-7.45a3.725,3.725,0,0,0,1-.01l2.49-.39a1.086,1.086,0,0,1,.44,0Zm29.62-3.58-4.42-.53a0.983,0.983,0,0,0-.93.42l-2.55,3.69-6.41-14.45a1.136,1.136,0,0,1,.41.01l2.48,0.39a3.3,3.3,0,0,0,1.04,0l3.31,7.46a1.012,1.012,0,0,0,.91.6,0.978,0.978,0,0,0,.41-0.09,1.011,1.011,0,0,0,.5-1.33l-3.33-7.51a3.5,3.5,0,0,0,.44-0.5l1.48-2.06a1.518,1.518,0,0,1,.34-0.33Zm3.04-32.35-1.32,2.17a3.435,3.435,0,0,0-.45,2.32l0.39,2.51a1.419,1.419,0,0,1-.56,1.37l-2.04,1.5a3.4,3.4,0,0,0-1.3,1.96l-0.6,2.48a1.383,1.383,0,0,1-1.03,1.04l-2.45.6a3.357,3.357,0,0,0-1.95,1.32l-1.48,2.05a1.39,1.39,0,0,1-1.36.57l-2.48-.4a3.42,3.42,0,0,0-2.3.46l-2.16,1.33a1.374,1.374,0,0,1-1.46,0l-2.15-1.33a3.4,3.4,0,0,0-1.78-.5,4.55,4.55,0,0,0-.52.04l-2.49.4a1.382,1.382,0,0,1-1.35-.57l-1.49-2.05a3.357,3.357,0,0,0-1.95-1.32l-2.45-.6a1.383,1.383,0,0,1-1.03-1.04l-0.59-2.48a3.412,3.412,0,0,0-1.31-1.96l-2.03-1.5a1.426,1.426,0,0,1-.57-1.37l0.4-2.51a3.5,3.5,0,0,0-.46-2.32l-1.31-2.17a1.409,1.409,0,0,1,0-1.48l1.31-2.17a3.5,3.5,0,0,0,.46-2.32l-0.39-2.52a1.391,1.391,0,0,1,.56-1.36l2.03-1.5a3.467,3.467,0,0,0,1.31-1.97l0.59-2.47a1.383,1.383,0,0,1,1.03-1.04l2.45-.6a3.412,3.412,0,0,0,1.96-1.32l1.48-2.05a1.382,1.382,0,0,1,1.35-.57l2.49,0.39a3.331,3.331,0,0,0,2.3-.46l2.15-1.32a1.374,1.374,0,0,1,1.46,0l2.16,1.32a3.31,3.31,0,0,0,2.3.46l2.48-.39a1.39,1.39,0,0,1,1.36.57l1.48,2.05a3.389,3.389,0,0,0,1.95,1.32l2.45,0.6a1.383,1.383,0,0,1,1.03,1.04l0.6,2.47a3.42,3.42,0,0,0,1.3,1.97l2.04,1.5a1.411,1.411,0,0,1,.56,1.36l-0.39,2.52a3.435,3.435,0,0,0,.45,2.32l1.32,2.17A1.453,1.453,0,0,1,1426.88,1294.03Zm-10.13-3.88a1.788,1.788,0,0,0-1.51-1.24l-6.01-.72-2.53-5.55a1.8,1.8,0,0,0-3.28,0l-2.53,5.55-6.01.72a1.775,1.775,0,0,0-1.5,1.24,1.818,1.818,0,0,0,.49,1.9l4.44,4.15-1.18,5.99a1.819,1.819,0,0,0,1.77,2.18,1.767,1.767,0,0,0,.88-0.24l5.28-2.98,5.28,2.98a1.757,1.757,0,0,0,1.94-.11,1.807,1.807,0,0,0,.71-1.83l-1.18-5.99,4.44-4.15A1.8,1.8,0,0,0,1416.75,1290.15Zm-6.7,4.95a1.006,1.006,0,0,0-.3.94l1.2,6.13-5.4-3.05a0.947,0.947,0,0,0-.49-0.13,0.973,0.973,0,0,0-.49.13l-5.4,3.05,1.21-6.13a1.031,1.031,0,0,0-.3-0.94l-4.55-4.24,6.15-.74a1.01,1.01,0,0,0,.79-0.58l2.59-5.67,2.59,5.67a1.01,1.01,0,0,0,.79.58l6.15,0.74Z" transform="translate(-1381.06 -1269.06)"/>
</symbol><symbol viewBox="0 0 64 40" id="metrics-delivery-icon" xmlns="http://www.w3.org/2000/svg">
    <defs>
        <style>.kcls-1 {
        fill: #243f4d;
        fill-rule: evenodd;
      }</style>
    </defs>
    <path class="kcls-1" d="M829.52,1297.96l-1.658-6.55a1,1,0,0,0,.793-0.97v-1.06a4.192,4.192,0,0,0-4.208-4.16H816.9v-2.17a2.063,2.063,0,0,0-2.071-2.05H776.346a2.063,2.063,0,0,0-2.071,2.05V1301a1,1,0,0,0,2,0v-17.95a0.068,0.068,0,0,1,.066-0.07h38.481a0.068,0.068,0,0,1,.066.07V1301a1,1,0,0,0,2,0v-1.12h11.826a3.27,3.27,0,0,1,3.114,2.24h-3.116a1,1,0,0,0-1,.99v2.11a3.131,3.131,0,0,0,3.14,3.11H832v4.35h-2.621a6.372,6.372,0,0,0-12,0H816.9v-7.46a1,1,0,0,0-2,0v7.46H794.1a6.372,6.372,0,0,0-12,0h-5.761a0.066,0.066,0,0,1-.066-0.06v-2.18h4.342a0.99,0.99,0,1,0,0-1.98H771a0.99,0.99,0,1,0,0,1.98h3.274v2.18a2.061,2.061,0,0,0,2.071,2.04h5.413c0,0.03,0,.05,0,0.07a6.347,6.347,0,0,0,12.693,0c0-.02,0-0.04,0-0.07h22.584c0,0.03,0,.05,0,0.07a6.347,6.347,0,0,0,12.693,0c0-.02,0-0.04,0-0.07H833a0.994,0.994,0,0,0,1-.99v-10.56A5.235,5.235,0,0,0,829.52,1297.96ZM816.9,1287.2h7.549a2.2,2.2,0,0,1,2.2,2.18v0.07H816.9v-2.25Zm0,10.7v-6.47h8.9l1.637,6.47H816.9ZM788.1,1319.02a4.29,4.29,0,1,1,4.343-4.29A4.325,4.325,0,0,1,788.1,1319.02Zm35.274,0a4.29,4.29,0,1,1,4.342-4.29A4.325,4.325,0,0,1,823.378,1319.02ZM832,1306.35H830.86a1.137,1.137,0,0,1-1.136-1.13v-1.12H832v2.25h0Zm-43.892,6.33a2.05,2.05,0,1,0,2.071,2.05A2.063,2.063,0,0,0,788.1,1312.68Zm35.274,0a2.05,2.05,0,1,0,2.071,2.05A2.063,2.063,0,0,0,823.378,1312.68Zm-11.758-4.22H796.655a0.99,0.99,0,1,0,0,1.98H811.62A0.99,0.99,0,1,0,811.62,1308.46Zm-25.653-4.23H773.14a0.99,0.99,0,1,0,0,1.98h12.827A0.99,0.99,0,1,0,785.967,1304.23Zm18.879-13.44a1.023,1.023,0,0,0-1.417,0l-8.911,8.81-4.636-4.58a1,1,0,0,0-1.417,0,0.98,0.98,0,0,0,0,1.4l5.344,5.28a1.01,1.01,0,0,0,1.417,0l9.62-9.51A0.98,0.98,0,0,0,804.846,1290.79Z" transform="translate(-770 -1281)"/>
</symbol><symbol viewBox="0 0 64 57" id="metrics-monitor-icon" xmlns="http://www.w3.org/2000/svg">
    <defs>
        <style>.lcls-1 {
        fill: #243f4d;
        fill-rule: evenodd;
      }</style>
    </defs>
    <path class="lcls-1" d="M530.635,1273h-57.27a3.368,3.368,0,0,0-3.365,3.36v41.14a3.368,3.368,0,0,0,3.365,3.36h21.691l-0.877,7h-3.633a1.07,1.07,0,1,0,0,2.14h22.908a1.07,1.07,0,1,0,0-2.14H509.82l-0.877-7h21.692A3.368,3.368,0,0,0,534,1317.5v-41.14A3.368,3.368,0,0,0,530.635,1273Zm-34.291,54.86,0.877-7h9.558l0.877,7H496.344Zm35.508-10.36a1.213,1.213,0,0,1-1.217,1.21h-57.27a1.212,1.212,0,0,1-1.217-1.21v-41.14a1.221,1.221,0,0,1,1.217-1.22h57.27a1.222,1.222,0,0,1,1.217,1.22v41.14h0Zm-11.525-39.93H475.655a1.072,1.072,0,0,0-1.073,1.07v35.43a1.072,1.072,0,0,0,1.073,1.07h3.437a1.07,1.07,0,1,0,0-2.14h-2.363v-33.29h43.6A1.07,1.07,0,1,0,520.327,1277.57Zm8.017,0h-3.436a1.07,1.07,0,1,0,0,2.14h2.363V1313h-43.6a1.07,1.07,0,1,0,0,2.14h44.671a1.073,1.073,0,0,0,1.074-1.07v-35.43A1.073,1.073,0,0,0,528.344,1277.57Zm-6.872,5.72a3.352,3.352,0,0,0-2.97,4.93l-8.6,9.09a3.322,3.322,0,0,0-1.408-.31,3.361,3.361,0,0,0-2.314.92l-7.348-3.88a3.364,3.364,0,1,0-6.684-.54,3.352,3.352,0,0,0,.328,1.45l-8.406,8.14a3.331,3.331,0,0,0-1.539-.38,3.36,3.36,0,1,0,3.036,1.91l8.406-8.14a3.328,3.328,0,0,0,3.852-.55l7.348,3.88a3.54,3.54,0,0,0-.044.55,3.365,3.365,0,1,0,6.334-1.58l8.6-9.09a3.316,3.316,0,0,0,1.408.31A3.355,3.355,0,1,0,521.472,1283.29Zm-38.944,24a1.215,1.215,0,1,1,1.217-1.22A1.222,1.222,0,0,1,482.528,1307.29Zm12.981-12.58a1.21,1.21,0,1,1,1.217-1.21A1.213,1.213,0,0,1,495.509,1294.71Zm12.982,6.86a1.215,1.215,0,1,1,1.217-1.21A1.212,1.212,0,0,1,508.491,1301.57Zm12.981-13.71a1.215,1.215,0,1,1,1.217-1.22A1.222,1.222,0,0,1,521.472,1287.86Zm0,4.57a1.073,1.073,0,0,0-1.074,1.07v16a1.074,1.074,0,0,0,2.148,0v-16A1.073,1.073,0,0,0,521.472,1292.43Zm-25.963,6.86a1.066,1.066,0,0,0-1.074,1.07v9.14a1.074,1.074,0,0,0,2.148,0v-9.14A1.066,1.066,0,0,0,495.509,1299.29Zm12.982,6.85a1.073,1.073,0,0,0-1.074,1.07v2.29a1.074,1.074,0,0,0,2.147,0v-2.29A1.072,1.072,0,0,0,508.491,1306.14Z" transform="translate(-470 -1273)"/>
</symbol><symbol viewBox="0 0 67 64" id="metrics-time-icon" xmlns="http://www.w3.org/2000/svg">
    <defs>
        <style>.mcls-1 {
        fill: #243f4d;
        fill-rule: evenodd;
      }</style>
    </defs>
    <path class="mcls-1" d="M1135.06,1322.46a4.359,4.359,0,0,0-2.21-3.23l-11.59-6.45a4.614,4.614,0,0,0-5.46.74l-4.07,4.03a2.4,2.4,0,0,1-3.1.24,75.725,75.725,0,0,1-15.25-15.09,2.362,2.362,0,0,1,.24-3.07l4.07-4.03a4.484,4.484,0,0,0,.75-5.4l-6.52-11.46a4.37,4.37,0,0,0-3.26-2.19,4.685,4.685,0,0,0-3.96,1.34l-4.29,4.24c-3.04,3.01-3.2,8.38-.45,15.13,2.62,6.46,7.61,13.53,14.05,19.9s13.59,11.32,20.12,13.91a23.842,23.842,0,0,0,8.65,1.93,9.073,9.073,0,0,0,6.63-2.37l4.29-4.25A4.6,4.6,0,0,0,1135.06,1322.46Zm-2.89,2.4-0.75.75-9.88-5.34a1.09,1.09,0,0,0-1.47.43,1.066,1.066,0,0,0,.43,1.46l9.32,5.03-1.94,1.92c-2.35,2.32-7.06,2.31-12.94-.03-6.27-2.49-13.15-7.26-19.39-13.44s-11.06-12.98-13.58-19.18c-2.36-5.82-2.37-10.49-.03-12.81l1.94-1.92,1.04,1.89a1.109,1.109,0,0,0,.96.56,1.095,1.095,0,0,0,.95-1.59l-1.35-2.44,0.75-.74a2.573,2.573,0,0,1,1.8-.76,1.841,1.841,0,0,1,.33.03,2.221,2.221,0,0,1,1.67,1.11l6.52,11.47a2.363,2.363,0,0,1-.39,2.83l-1.94,1.91-5.08-9.22a1.1,1.1,0,0,0-1.47-.43,1.078,1.078,0,0,0-.44,1.46l5.39,9.77-0.53.53a4.5,4.5,0,0,0-.45,5.87,75.017,75.017,0,0,0,7.28,8.32,76.9,76.9,0,0,0,8.41,7.21,4.624,4.624,0,0,0,5.94-.44l0.53-.53,2.46,1.33a1.112,1.112,0,0,0,.52.13,1.089,1.089,0,0,0,.96-0.56,1.064,1.064,0,0,0-.44-1.45l-1.9-1.03,1.93-1.92a2.438,2.438,0,0,1,2.86-.39l11.59,6.45a2.244,2.244,0,0,1,1.13,1.65A2.517,2.517,0,0,1,1132.17,1324.86Zm-2.14-28.37h-1.23v-9.24a1.085,1.085,0,0,0-2.17,0v9.24h-5.67l2.02-9a1.069,1.069,0,0,0-.82-1.28,1.083,1.083,0,0,0-1.3.81l-2.31,10.31a1.073,1.073,0,0,0,.21.9,1.091,1.091,0,0,0,.85.41h7.01v3.5a1.09,1.09,0,0,0,2.18,0v-3.5h1.22A1.075,1.075,0,1,0,1130.03,1296.49Zm-13.89,4.58h-7.99c0.47-1.23,1.81-2.01,3.73-3.05,2.38-1.29,5.34-2.88,5.34-6.51a5.729,5.729,0,0,0-11.43,0,1.085,1.085,0,0,0,2.17,0,3.566,3.566,0,0,1,7.09,0c0,2.19-1.59,3.21-4.21,4.62-2.36,1.28-5.05,2.73-5.05,6.01a1.084,1.084,0,0,0,1.09,1.08h9.26A1.075,1.075,0,1,0,1116.14,1301.07Zm22.93,12.62-2.11.42a26.086,26.086,0,0,0,8.04-18.84,26.608,26.608,0,0,0-48.27-15.11,1.065,1.065,0,0,0,.26,1.5,1.1,1.1,0,0,0,1.51-.26,24.436,24.436,0,0,1,44.33,13.87,23.961,23.961,0,0,1-7.59,17.5l0.48-2.4a1.069,1.069,0,0,0-.85-1.26,1.085,1.085,0,0,0-1.28.84l-1.16,5.73a1.069,1.069,0,0,0,.3.97,1.107,1.107,0,0,0,.77.31,0.749,0.749,0,0,0,.21-0.02l5.79-1.14A1.077,1.077,0,1,0,1139.07,1313.69Zm-20.62-40.11a1.073,1.073,0,0,0-1.08,1.07v2.3a1.085,1.085,0,0,0,2.17,0v-2.3A1.082,1.082,0,0,0,1118.45,1273.58Zm20.83,20.62h-2.31a1.075,1.075,0,1,0,0,2.15h2.31A1.075,1.075,0,1,0,1139.28,1294.2Zm-36.33-9.02-2-1.15a1.091,1.091,0,0,0-1.48.4,1.064,1.064,0,0,0,.39,1.46l2.01,1.15a1.063,1.063,0,0,0,.54.14,1.081,1.081,0,0,0,.94-0.53A1.07,1.07,0,0,0,1102.95,1285.18Zm34.09,19.47-2.01-1.14a1.075,1.075,0,1,0-1.08,1.86l2,1.14a1.063,1.063,0,0,0,.54.14,1.081,1.081,0,0,0,.94-0.53A1.067,1.067,0,0,0,1137.04,1304.65Zm-7.63-28.16a1.088,1.088,0,0,0-1.48.39l-1.16,1.98a1.074,1.074,0,0,0,.94,1.61,1.093,1.093,0,0,0,.94-0.53l1.16-1.99A1.059,1.059,0,0,0,1129.41,1276.49Zm-19.68,33.72a1.091,1.091,0,0,0-1.48.4l-1.16,1.98a1.073,1.073,0,0,0,.4,1.47,1.174,1.174,0,0,0,.54.14,1.07,1.07,0,0,0,.94-0.54l1.16-1.98A1.073,1.073,0,0,0,1109.73,1310.21Zm27.7-25.78a1.091,1.091,0,0,0-1.48-.4l-2,1.15a1.07,1.07,0,0,0-.4,1.47,1.093,1.093,0,0,0,.94.53,1.063,1.063,0,0,0,.54-0.14l2.01-1.15A1.056,1.056,0,0,0,1137.43,1284.43Zm-34.08,19.47a1.079,1.079,0,0,0-1.48-.39l-2.01,1.14a1.072,1.072,0,0,0,.55,2,1.063,1.063,0,0,0,.54-0.14l2-1.14A1.073,1.073,0,0,0,1103.35,1303.9Zm6.78-25.04-1.16-1.98a1.088,1.088,0,0,0-1.48-.39,1.059,1.059,0,0,0-.4,1.46l1.16,1.99a1.1,1.1,0,0,0,.94.54,1.048,1.048,0,0,0,.54-0.15A1.07,1.07,0,0,0,1110.13,1278.86Zm19.68,33.73-1.16-1.98a1.091,1.091,0,0,0-1.48-.4,1.073,1.073,0,0,0-.4,1.47l1.16,1.98a1.07,1.07,0,0,0,.94.54,1.174,1.174,0,0,0,.54-0.14A1.073,1.073,0,0,0,1129.81,1312.59Z" transform="translate(-1078 -1269)"/>
</symbol><symbol viewBox="0 0 20.03 20.031" id="more-icon" xmlns="http://www.w3.org/2000/svg">
    <defs>
        <style>.ncls-1 {
        fill: #fff;
        fill-rule: evenodd;
      }</style>
    </defs>
    <path class="ncls-1" d="M1813.15,67.881a2.146,2.146,0,1,1,2.14-2.145A2.145,2.145,0,0,1,1813.15,67.881Zm0,7.869a2.146,2.146,0,1,1,2.14-2.147A2.146,2.146,0,0,1,1813.15,75.75Zm0,7.868a2.146,2.146,0,1,1,2.14-2.146A2.145,2.145,0,0,1,1813.15,83.618Zm7.86-15.737a2.146,2.146,0,1,1,2.15-2.145A2.143,2.143,0,0,1,1821.01,67.881Zm0,7.869a2.146,2.146,0,1,1,2.15-2.147A2.144,2.144,0,0,1,1821.01,75.75Zm0,7.868a2.146,2.146,0,1,1,2.15-2.146A2.143,2.143,0,0,1,1821.01,83.618Zm7.87-15.737a2.146,2.146,0,1,1,2.15-2.145A2.143,2.143,0,0,1,1828.88,67.881Zm0,7.869a2.146,2.146,0,1,1,2.15-2.147A2.144,2.144,0,0,1,1828.88,75.75Zm0,7.868a2.146,2.146,0,1,1,2.15-2.146A2.143,2.143,0,0,1,1828.88,83.618Z" transform="translate(-1811 -63.594)"/>
</symbol><symbol viewBox="0 0 36.41 37.719" id="project-icon" xmlns="http://www.w3.org/2000/svg">
    <defs>
        <style>.ocls-1 {
        fill: #a3bbc8;
        fill-rule: evenodd;
      }</style>
    </defs>
    <path class="ocls-1" d="M993.975,958.96A1.984,1.984,0,0,1,992,956.969V929.691a0.915,0.915,0,0,1,.264-0.643l7.476-7.542a0.9,0.9,0,0,1,.638-0.267h19.09a1.98,1.98,0,0,1,1.97,1.991V926.1a0.9,0.9,0,1,1-1.8,0V923.23a0.172,0.172,0,0,0-.17-0.17h-18.19v5.552a1.98,1.98,0,0,1-1.97,1.99h-5.5v26.367a0.17,0.17,0,0,0,.168.17h25.5a0.173,0.173,0,0,0,.17-0.17v-13.9a0.9,0.9,0,1,1,1.8,0v13.9a1.98,1.98,0,0,1-1.97,1.991h-25.5Zm1.108-30.178h4.227a0.17,0.17,0,0,0,.168-0.17v-4.265Zm3.976,23.708a0.91,0.91,0,0,1,0-1.82H1003l1.39-5.066a0.9,0.9,0,0,1,.23-0.4l0.02-.015h-5.581a0.91,0.91,0,0,1,0-1.82h7.381l5.43-5.48H999.059a0.911,0.911,0,0,1,0-1.821h14.621l8.43-8.5a3.038,3.038,0,0,1,4.32,0l1.06,1.071a3.1,3.1,0,0,1,0,4.356L1010,950.632a0.889,0.889,0,0,1-.39.234l-5.7,1.6c-0.03.007-.23,0.029-0.23,0.029h-4.621Zm5.921-2.218,2.65-.744-1.91-1.933Zm1.56-4.424,2.83,2.853,14.43-14.562-2.83-2.852Zm16.84-17L1022.25,930l2.83,2.853,1.13-1.147a1.264,1.264,0,0,0,0-1.782l-1.06-1.071a1.225,1.225,0,0,0-.88-0.369A1.265,1.265,0,0,0,1023.38,928.852Z" transform="translate(-992 -921.25)"/>
</symbol><symbol viewBox="0 0 43.12 39.094" id="revenue-icon" xmlns="http://www.w3.org/2000/svg">
    <defs>
        <style>.pcls-1 {
        fill: #a3bbc8;
        fill-rule: evenodd;
      }</style>
    </defs>
    <path class="pcls-1" d="M1227.87,929.648v-7.126a2.174,2.174,0,0,0-1.05-1.887,2.076,2.076,0,0,0-2.13-.021,48.669,48.669,0,0,1-20.7,6.383c-0.06,0-6.68.034-6.68,0.034a3.286,3.286,0,0,0-3.23,2.949h-1.36a2.749,2.749,0,0,0-2.71,2.774v6.1a2.748,2.748,0,0,0,2.71,2.774h1.36a3.32,3.32,0,0,0,1.91,2.664l4.85,13.723a2.118,2.118,0,0,0,1.98,1.428h4.86a2.1,2.1,0,0,0,1.73-.925,2.221,2.221,0,0,0,.25-1.986l-4.15-11.785a48.668,48.668,0,0,1,19.18,6.244,2.08,2.08,0,0,0,2.13-.021,2.174,2.174,0,0,0,1.05-1.887v-7.126A6.228,6.228,0,0,0,1227.87,929.648Zm-33.82,9.836h-1.33a0.622,0.622,0,0,1-.62-0.634v-6.1a0.623,0.623,0,0,1,.62-0.634h1.33v7.364Zm2.78,2.844a1.2,1.2,0,0,1-.69-1.1V930.374h0a1.185,1.185,0,0,1,1.17-1.2h5.67v13.262s-5.72,0-5.75,0A1.027,1.027,0,0,1,1196.83,942.328Zm10.88,14.93a0.037,0.037,0,0,1-.01.028c-0.01.013-.01,0.013-0.02,0.013h-4.86a0.049,0.049,0,0,1-.03-0.018l-4.48-12.708h4.92Zm18.08-8.179a0.037,0.037,0,0,1-.03.041,0.04,0.04,0,0,1-.05,0,50.66,50.66,0,0,0-20.65-6.57v-13.5a50.692,50.692,0,0,0,20.65-6.571,0.04,0.04,0,0,1,.05,0,0.037,0.037,0,0,1,.03.041v26.557Zm2.08-9.292v-7.974A4.089,4.089,0,0,1,1227.87,939.787Z" transform="translate(-1190 -920.344)"/>
</symbol><symbol viewBox="0 0 15.28 15.281" id="search-icon" xmlns="http://www.w3.org/2000/svg">
    <defs>
        <style>.qcls-1 {
        fill: #243f4d;
        fill-rule: evenodd;
      }</style>
    </defs>
    <path id="qicon" class="qcls-1" d="M1547.7,72.076a0.617,0.617,0,0,1,.75.484,2.585,2.585,0,0,0,.78,1.489,3.039,3.039,0,0,0,1.49.777,0.635,0.635,0,0,1,.49.743,0.649,0.649,0,0,1-.72.515,4.212,4.212,0,0,1-2.14-1.131,4.166,4.166,0,0,1-1.13-2.135A0.6,0.6,0,0,1,1547.7,72.076Zm3.28-6.08a6.267,6.267,0,0,1,6.28,6.256,6.137,6.137,0,0,1-.57,2.6l2.34,2.036c1.7,1.746.74,3.266,0.29,3.717-0.42.453-1.99,1.414-3.73-.292l-2.06-2.35A6.261,6.261,0,1,1,1550.98,66Zm5.55,13.516a1.352,1.352,0,0,0,1.88.226,1.313,1.313,0,0,0-.23-1.874l-2.16-1.88a6.222,6.222,0,0,1-1.37,1.34Zm-5.55-2.312a4.948,4.948,0,1,0-4.97-4.948A4.962,4.962,0,0,0,1550.98,77.2Z" transform="translate(-1544.72 -66)"/>
</symbol><symbol viewBox="0 0 53.56 52.25" id="secure-icon" xmlns="http://www.w3.org/2000/svg">
    <defs>
        <style>.rcls-1, .rcls-2 {
        fill: #a3bbc8;
      }.rcls-1 {
        opacity: 0.34;
      }.rcls-2 {
        fill-rule: evenodd;
      }</style>
    </defs>
    <circle class="rcls-1" cx="43.75" cy="42.45" r="9.81"/>
    <path id="rcredit-card" class="rcls-2" d="M1444.43,1042.32a0.83,0.83,0,0,0-.84.83v8.27a2.164,2.164,0,0,1-2.16,2.16h-39.34a2.164,2.164,0,0,1-2.16-2.16V1039.5h27.29a0.84,0.84,0,1,0,0-1.68h-27.29v-5.47h9.87a0.828,0.828,0,0,0,.83-0.83,0.837,0.837,0,0,0-.83-0.84h-9.87v-2.88a2.166,2.166,0,0,1,2.16-2.17h25.13a0.835,0.835,0,1,0,0-1.67h-25.13a3.839,3.839,0,0,0-3.83,3.84v23.62a3.837,3.837,0,0,0,3.83,3.83h39.34a3.837,3.837,0,0,0,3.83-3.83v-8.27A0.828,0.828,0,0,0,1444.43,1042.32Zm-17.21-11.64H1413a0.837,0.837,0,0,0-.83.84,0.828,0.828,0,0,0,.83.83h14.22a0.837,0.837,0,0,0,.84-0.83A0.845,0.845,0,0,0,1427.22,1030.68Zm-9.24,11.56h-14.27a0.835,0.835,0,0,0,0,1.67h14.27A0.835,0.835,0,1,0,1417.98,1042.24Zm-6.08,3.99h-8.19a0.835,0.835,0,0,0,0,1.67h8.19A0.835,0.835,0,0,0,1411.9,1046.23Zm34.63-13.61a0.832,0.832,0,0,0,.84-0.84v-4.77a3.038,3.038,0,0,0-2.39-2.97v-6.02a6.6,6.6,0,1,0-13.19,0v6.02a3.053,3.053,0,0,0-2.4,2.97v10.75a3.045,3.045,0,0,0,3.04,3.04h11.9a3.039,3.039,0,0,0,3.04-3.04v-3.19a0.835,0.835,0,0,0-1.67,0v3.19a1.379,1.379,0,0,1-1.37,1.37h-11.9a1.379,1.379,0,0,1-1.37-1.37v-10.75a1.379,1.379,0,0,1,1.37-1.37h11.9a1.379,1.379,0,0,1,1.37,1.37v4.77A0.83,0.83,0,0,0,1446.53,1032.62Zm-3.23-8.65h-9.84v-5.95a4.92,4.92,0,1,1,9.84,0v5.95h0Zm-4.92,4.32a3.092,3.092,0,0,0-.83,6.07v2.04a0.83,0.83,0,0,0,.83.84,0.839,0.839,0,0,0,.84-0.84v-2.04A3.094,3.094,0,0,0,1438.38,1028.29Zm0,4.52a1.425,1.425,0,1,1,1.42-1.43A1.428,1.428,0,0,1,1438.38,1032.81Z" transform="translate(-1398.25 -1011.41)"/>
</symbol><symbol viewBox="0 0 50.875 53.13" id="support-icon" xmlns="http://www.w3.org/2000/svg">
    <defs>
        <style>.scls-1, .scls-2 {
        fill: #a3bbc8;
        fill-rule: evenodd;
      }.scls-2 {
        opacity: 0.34;
      }</style>
    </defs>
    <path class="scls-1" d="M268.312,1022.67a0.937,0.937,0,0,0-1.592.99,22.684,22.684,0,0,1-32.86,30.14,0.938,0.938,0,0,0-1.125,1.5A24.559,24.559,0,0,0,268.312,1022.67Zm-23.03,21.94h-7.55l4.743-4.75a12.68,12.68,0,0,0,3.744-9.03,5.844,5.844,0,1,0-11.688,0,0.938,0.938,0,0,0,1.875,0,3.969,3.969,0,1,1,7.938,0,10.836,10.836,0,0,1-3.195,7.71l-6.344,6.34a0.949,0.949,0,0,0-.2,1.03,0.93,0.93,0,0,0,.866.57h9.813A0.935,0.935,0,1,0,245.282,1044.61Zm15.039-6.44h-2.6v-1.52a0.938,0.938,0,0,0-1.875,0v1.52h-5.286l5.286-8.85v4.21a0.938,0.938,0,1,0,1.875,0v-7.62a0.957,0.957,0,0,0-.456-0.8,0.94,0.94,0,0,0-1.286.33l-7.875,13.19a0.933,0.933,0,0,0-.011.94,0.951,0.951,0,0,0,.816.48h6.938v5.5a0.938,0.938,0,0,0,1.875,0v-5.5h2.6A0.94,0.94,0,0,0,260.321,1038.17Zm5.33-22.63a0.938,0.938,0,1,0-1.875.04l0.042,1.75a24.556,24.556,0,0,0-33.549,35.85,0.93,0.93,0,0,0,.656.27,0.92,0.92,0,0,0,.669-0.28,0.942,0.942,0,0,0-.013-1.33,22.679,22.679,0,0,1,15.882-38.87,22.745,22.745,0,0,1,15.107,5.77l-1.843.04a0.935,0.935,0,0,0,.022,1.87h0.023l4.06-.09a0.934,0.934,0,0,0,.915-0.96Z" transform="translate(-222.906 -1011.09)"/>
    <path class="scls-2" d="M263.984,1044.59a9.815,9.815,0,1,1-9.8,9.82A9.811,9.811,0,0,1,263.984,1044.59Z" transform="translate(-222.906 -1011.09)"/>
</symbol></svg>