<?xml version="1.0" encoding="utf-8"?><svg viewBox="0 0 67 64" xmlns="http://www.w3.org/2000/svg" xmlns:xlink="http://www.w3.org/1999/xlink"><style>:root>svg{display:none}:root>svg:target{display:block}</style><svg viewBox="0 0 22 9" id="arrow-icon" xmlns="http://www.w3.org/2000/svg">
    <path fill="currentColor" fill-rule="evenodd" d="M.3 5.472h16.948l-.1 2.857a.292.292 0 0 0 0 .41l.172.172a.28.28 0 0 0 .2.086.285.285 0 0 0 .2-.084l4.193-4.211A.292.292 0 0 0 22 4.5a.283.283 0 0 0-.084-.2L17.723.087a.289.289 0 0 0-.407 0l-.172.173a.287.287 0 0 0-.084.2.278.278 0 0 0 .084.2l.113 2.865H.292A.3.3 0 0 0 0 3.82v1.37a.292.292 0 0 0 .3.282Z"/>
</svg><svg viewBox="0 0 41.78 40.406" id="awards-icon" xmlns="http://www.w3.org/2000/svg">
    <path d="M1399.9 951.7a8.516 8.516 0 0 1 .83-3.671l-13.22-20.446a.919.919 0 0 1 .11-1.139l6.32-6.418a.9.9 0 0 1 .63-.266h27.35a.882.882 0 0 1 .63.266l6.32 6.418a.906.906 0 0 1 .11 1.139l-13.22 20.447a8.508 8.508 0 0 1 .83 3.67 8.346 8.346 0 1 1-16.69 0Zm1.79 0a6.556 6.556 0 1 0 6.56-6.661 6.617 6.617 0 0 0-6.56 6.661Zm8.55-8.23a8.324 8.324 0 0 1 4.47 2.884l11.87-18.362h-6.34Zm-8.46 2.883a8.354 8.354 0 0 1 4.48-2.883l-10.01-15.478h-6.34Zm6.45-3.127h.03l9.85-15.234h-19.73Zm-17.82-17.047h35.67l-4.53-4.606h-26.61Zm17.25 28.919v-4.9h-.53a.907.907 0 0 1 0-1.814h1.42a.9.9 0 0 1 .89.908v5.808a.89.89 0 1 1-1.78-.007Z" transform="translate(-1387.34 -919.75)" style="fill:#a3bbc8;fill-rule:evenodd"/>
</svg><svg viewBox="0 0 18.94 16.969" id="cart-icon" xmlns="http://www.w3.org/2000/svg">
    <path d="M1721.53 85.978a2.074 2.074 0 1 1 0-4.147 2.057 2.057 0 0 1 1.46.6 2.031 2.031 0 0 1 .61 1.466 2.07 2.07 0 0 1-2.07 2.081Zm0-2.963a.889.889 0 1 0 .34 1.71.9.9 0 0 0 .55-.824.92.92 0 0 0-.26-.628.9.9 0 0 0-.63-.259Zm8.39 2.963a2.045 2.045 0 0 1-1.46-.606 2.068 2.068 0 0 1 1.46-3.541 1.954 1.954 0 0 1 1.47.6 2.085 2.085 0 0 1-.67 3.383 2.1 2.1 0 0 1-.8.164Zm0-2.963a.979.979 0 0 0-.82.549.887.887 0 0 0 1.16 1.162.891.891 0 0 0 .29-1.453.9.9 0 0 0-.63-.259Zm-11.27.164a.561.561 0 0 1-.25-.056.59.59 0 0 1-.29-.787 3.686 3.686 0 0 1 3.05-2.151l-1.05-5.391a.591.591 0 1 1 1.16-.228l1.09 5.578h9.43l1.8-6.771h-13.3a4.346 4.346 0 0 1-4.28-3.693.587.587 0 0 1 .49-.673.6.6 0 0 1 .68.5 3.16 3.16 0 0 0 3.11 2.682h14.07a.581.581 0 0 1 .47.232.594.594 0 0 1 .11.513l-2.13 7.956a.59.59 0 0 1-.57.44h-10.36a.035.035 0 0 0-.02 0 2.66 2.66 0 0 0-2.68 1.51.586.586 0 0 1-.53.338Z" transform="translate(-1716 -69)" style="fill:#243f4d;fill-rule:evenodd"/>
</svg><svg viewBox="0 0 53.75 36.44" id="delivery-icon" xmlns="http://www.w3.org/2000/svg">
    <circle cx="43.938" cy="26.645" r="9.812" style="opacity:.34;fill:#a3bbc8"/>
    <path d="M812.816 1025.33h-6.126a.79.79 0 0 0 0 1.58h6.126a.79.79 0 0 0 0-1.58Zm.524 11.01h-5.6a.785.785 0 1 0 0 1.57h5.6a.785.785 0 1 0 0-1.57Zm-2.094-4.72H804.6a.79.79 0 0 0 0 1.58h6.65a.79.79 0 0 0-.004-1.58Zm0 11.01h-.646a.785.785 0 1 0 0 1.57h.644a.785.785 0 1 0 .002-1.57Zm-3.263 0H804.6a.785.785 0 1 0 0 1.57h3.387a.785.785 0 1 0-.004-1.57Zm36.86-19.86h-6.657v-1.42a.784.784 0 0 0-.786-.78h-12.175a.785.785 0 1 0 0 1.57h11.39v17.22a.786.786 0 1 0 1.571 0v-15.02h6.657a6.519 6.519 0 0 1 6.509 6.52v13.29h-2a4.974 4.974 0 0 0-9.824 0h-1.345v-1.12a.786.786 0 1 0-1.571 0v1.12h-8.336a4.974 4.974 0 0 0-9.823 0h-1.634v-22.01h5.261a.785.785 0 1 0 0-1.57h-6.046a.783.783 0 0 0-.785.78v23.59a.791.791 0 0 0 .785.79h2.419a4.974 4.974 0 0 0 9.823 0h11.252a4.974 4.974 0 0 0 9.824 0h2.782a.791.791 0 0 0 .785-.79v-14.08a8.094 8.094 0 0 0-8.076-8.09Zm-21.475 25.58a3.41 3.41 0 1 1 3.4-3.41 3.411 3.411 0 0 1-3.4 3.41Zm21.075 0a3.411 3.411 0 0 1-3.4-3.41 3.4 3.4 0 1 1 3.4 3.41Zm.4-22.44h-4.3a.791.791 0 0 0-.785.79v7.39a.791.791 0 0 0 .785.79H849a.792.792 0 0 0 .786-.79v-3.23a4.949 4.949 0 0 0-4.943-4.95Zm3.367 7.39h-6.882v-5.81h3.515a3.371 3.371 0 0 1 3.367 3.37v2.44Zm-24.842 9.61a2.03 2.03 0 1 0 2.024 2.03 2.029 2.029 0 0 0-2.024-2.03Zm0 2.49a.46.46 0 0 1-.455-.46.455.455 0 0 1 .909 0 .46.46 0 0 1-.454.46Zm21.075-2.49a2.03 2.03 0 1 0 2.025 2.03 2.03 2.03 0 0 0-2.025-2.03Zm0 2.49a.46.46 0 0 1-.454-.46.454.454 0 0 1 .908 0 .46.46 0 0 1-.454.46Zm4.552-8.37a.783.783 0 0 0-.785.78v1.99a.786.786 0 1 0 1.571 0v-1.99a.784.784 0 0 0-.781-.78Z" transform="translate(-803.812 -1020.56)" style="fill-rule:evenodd;fill:#a3bbc8"/>
</svg><svg viewBox="0 0 22.66 14.38" id="google-plus-icon" xmlns="http://www.w3.org/2000/svg">
    <path data-name="Union 6" d="M1452.75 1960.35a7.121 7.121 0 0 1-6.59-5.65 6.6 6.6 0 0 1-.14-1.93 7.277 7.277 0 0 1 5.49-6.56 5.282 5.282 0 0 1 1.18-.19c.23-.01.46-.02.69-.02a6.786 6.786 0 0 1 3.4.93 9.386 9.386 0 0 1 1.27.93c-.72.71-1.41 1.4-2.11 2.09a3.914 3.914 0 0 0-2.1-1.02 4.259 4.259 0 0 0-.61-.04 4.307 4.307 0 0 0-4.14 3.35 3.817 3.817 0 0 0-.1 1.3 4.307 4.307 0 0 0 2.93 3.74 4.472 4.472 0 0 0 1.26.19c.1 0 .2-.01.3-.01a4.2 4.2 0 0 0 2.09-.67 3.314 3.314 0 0 0 1.43-2.17h-3.85c0-.09.02-1.89.02-2.76l.01-.12h6.76a7.773 7.773 0 0 1-1.28 6.05 6.273 6.273 0 0 1-3.55 2.32 7.539 7.539 0 0 1-1.94.25c-.14 0-.28 0-.42-.01Zm13.33-4.05h-1.89v-.07l.02-2.43h-2.51v-.08l.02-1.82v-.07h2.5l.02-2.43v-.07h1.96v.07l-.02 2.43h2.51v.07l-.01 1.82v.08h-2.51l-.02 2.43v.07h-.07Z" transform="translate(-1446.03 -1946)" style="fill:#888;fill-rule:evenodd"/>
</svg><svg fill="none" viewBox="0 0 18 16" id="heart-icon" xmlns="http://www.w3.org/2000/svg">
    <path fill-rule="evenodd" clip-rule="evenodd" d="M8.93 15.523a.705.705 0 0 1-.28-.056C8.297 15.317 0 11.717 0 4.707.091 2.057 2.207 0 4.817 0 6.561 0 8.085.918 8.93 2.31A4.796 4.796 0 0 1 13.042 0c2.61 0 4.725 2.058 4.817 4.684 0 7.033-8.297 10.633-8.65 10.783a.71.71 0 0 1-.28.056ZM4.818 1.385c-1.847 0-3.343 1.47-3.408 3.346 0 5.407 6.125 8.663 7.52 9.335 1.395-.672 7.52-3.93 7.52-9.359-.066-1.852-1.563-3.322-3.408-3.322S9.7 2.855 9.634 4.731a.7.7 0 0 1-.704.67.7.7 0 0 1-.705-.67C8.16 2.855 6.664 1.385 4.818 1.385Z" fill="#243F4D"/>
</svg><svg viewBox="0 0 17.19 17.19" id="instagram-icon" xmlns="http://www.w3.org/2000/svg">
    <path data-name="Union 5" d="M1404.59 1961.94a4.322 4.322 0 0 1-3.43-3.75c-.23-1.45-.25-8.19.17-9.65a4.387 4.387 0 0 1 3.75-3.35 34.1 34.1 0 0 1 4.3-.19c1.61 0 3.23.04 4.2.1a4.724 4.724 0 0 1 3.14 1.28 4.517 4.517 0 0 1 1.38 2.94c.12 1.35.21 7.74-.19 9.24a4.411 4.411 0 0 1-3.8 3.44 42.333 42.333 0 0 1-4.74.19 29.143 29.143 0 0 1-4.78-.25Zm.92-15.26a2.958 2.958 0 0 0-2.75 2.59 57.587 57.587 0 0 0-.06 8.69 2.8 2.8 0 0 0 2.12 2.43 27.569 27.569 0 0 0 4.63.25c1.8 0 3.57-.06 4.24-.13a2.941 2.941 0 0 0 2.75-2.6 61.315 61.315 0 0 0 .11-8.45 2.9 2.9 0 0 0-2.58-2.74 40.212 40.212 0 0 0-4.3-.16c-1.71 0-3.41.04-4.16.12Zm-.32 6.92a4.445 4.445 0 0 1 4.45-4.41 4.37 4.37 0 0 1 4.37 4.41 4.458 4.458 0 0 1-4.45 4.41 4.37 4.37 0 0 1-4.37-4.41Zm1.55-.03a2.834 2.834 0 0 0 2.81 2.88h.02a2.882 2.882 0 0 0 2.88-2.82 2.82 2.82 0 0 0-2.8-2.88h-.03a2.881 2.881 0 0 0-2.88 2.82Zm6.45-4.55a1.029 1.029 0 0 1 1.03-1.03h.01a1.016 1.016 0 0 1 1.02 1.04 1.035 1.035 0 0 1-1.04 1.02 1.014 1.014 0 0 1-1.02-1.03Z" transform="translate(-1401 -1945)" style="fill:#888;fill-rule:evenodd"/>
</svg><svg viewBox="0 0 50.125 38.875" id="logo-icon" xmlns="http://www.w3.org/2000/svg">
    <path data-name="Path 324" d="M76.157 79.674a1.13 1.13 0 0 0 .622.387l48.041 9.8a1.137 1.137 0 0 0 .908-.212.874.874 0 0 0 .31-.8l-6.251-37.079a.962.962 0 0 0-.449-.645 1.337 1.337 0 0 0-.965-.051L83.179 65.118a.9.9 0 0 0-.507.452c-.171.325-6.494 13.076-6.583 13.257a.806.806 0 0 0 .068.847Zm45.586 6.436-20.05-11.145 10.339-2.159Zm-37.7-18.883 12.526 6.983-17.833 3.715Zm1.662-1.172 31.535-12.587-5.558 17.587-12.371 2.584Zm37.658 18.995-9.779-13.4 4.9-15.52Zm-3.886 1.9-38.051-7.763 17.523-3.65Z" transform="translate(-76 -51)" style="fill:#a3bbc8;fill-rule:evenodd"/>
</svg><svg viewBox="0 0 48.03 63.94" id="metrics-award-icon" xmlns="http://www.w3.org/2000/svg">
    <path d="M1413.15 1277.01a17.9 17.9 0 0 0-20.89 3.38 18.376 18.376 0 0 0-1.5 24.05 1.029 1.029 0 0 0 .79.39.981.981 0 0 0 .62-.22 1.011 1.011 0 0 0 .17-1.41 16.324 16.324 0 0 1 1.33-21.38 15.907 15.907 0 0 1 18.58-3.01 1 1 0 0 0 1.34-.44 1.018 1.018 0 0 0-.44-1.36Zm7.97 8.05a.99.99 0 0 0-1.34-.44 1.007 1.007 0 0 0-.44 1.35 16.279 16.279 0 0 1-2.98 18.75 15.948 15.948 0 0 1-21.18 1.34.992.992 0 0 0-1.4.18 1.011 1.011 0 0 0 .17 1.41 17.914 17.914 0 0 0 23.82-1.5 18.316 18.316 0 0 0 3.35-21.09Zm-2.58-3.84c-.24-.28-.5-.56-.77-.83s-.54-.53-.82-.78a1 1 0 0 0-1.32 1.51c.25.23.49.46.73.7s.47.49.69.74a.991.991 0 0 0 .74.34 1.05 1.05 0 0 0 .67-.25 1.021 1.021 0 0 0 .08-1.43Zm10.04 13.86a3.439 3.439 0 0 0 0-3.58l-1.31-2.17a1.412 1.412 0 0 1-.19-.96l.39-2.51a3.427 3.427 0 0 0-1.36-3.31l-2.03-1.5a1.384 1.384 0 0 1-.54-.81l-.6-2.47a3.391 3.391 0 0 0-2.5-2.53l-2.45-.6a1.448 1.448 0 0 1-.81-.54l-1.48-2.06a3.365 3.365 0 0 0-3.28-1.37l-2.48.39a1.374 1.374 0 0 1-.95-.19l-2.16-1.32a3.326 3.326 0 0 0-3.54 0l-2.15 1.32a1.384 1.384 0 0 1-.95.19l-2.49-.39a3.373 3.373 0 0 0-3.28 1.37l-1.48 2.05a1.393 1.393 0 0 1-.8.55l-2.45.6a3.388 3.388 0 0 0-2.51 2.53l-.59 2.47a1.415 1.415 0 0 1-.54.81l-2.04 1.5a3.427 3.427 0 0 0-1.36 3.31l.39 2.51a1.406 1.406 0 0 1-.18.96l-1.32 2.17a3.484 3.484 0 0 0 0 3.58l1.32 2.17a1.406 1.406 0 0 1 .18.96l-.39 2.51a3.427 3.427 0 0 0 1.36 3.31l2.04 1.5a1.384 1.384 0 0 1 .54.81l.59 2.47a3.391 3.391 0 0 0 2.5 2.53l1.03.25-6.93 15.59a1.043 1.043 0 0 0 .11 1.01.981.981 0 0 0 .92.4l5.57-.67 3.21 4.65a1.01 1.01 0 0 0 .82.43h.1a.994.994 0 0 0 .81-.6l7.08-15.92.89.55a3.326 3.326 0 0 0 3.54 0l.93-.57 7.08 15.94a1.009 1.009 0 0 0 .82.6h.09a1 1 0 0 0 .82-.43l3.21-4.65 5.57.68a1.015 1.015 0 0 0 1.03-1.42l-6.93-15.6.99-.24a3.391 3.391 0 0 0 2.5-2.53l.6-2.47a1.384 1.384 0 0 1 .54-.81l2.03-1.5a3.427 3.427 0 0 0 1.36-3.31l-.39-2.51a1.412 1.412 0 0 1 .19-.96Zm-34.36 34.88-2.54-3.69a.99.99 0 0 0-.94-.42l-4.41.53 6.31-14.2a1.421 1.421 0 0 1 .3.3l1.48 2.06a3.958 3.958 0 0 0 .47.53l-3.32 7.48a1.005 1.005 0 0 0 .91 1.42 1 1 0 0 0 .91-.6l3.31-7.45a3.725 3.725 0 0 0 1-.01l2.49-.39a1.086 1.086 0 0 1 .44 0Zm29.62-3.58-4.42-.53a.983.983 0 0 0-.93.42l-2.55 3.69-6.41-14.45a1.136 1.136 0 0 1 .41.01l2.48.39a3.3 3.3 0 0 0 1.04 0l3.31 7.46a1.012 1.012 0 0 0 .91.6.978.978 0 0 0 .41-.09 1.011 1.011 0 0 0 .5-1.33l-3.33-7.51a3.5 3.5 0 0 0 .44-.5l1.48-2.06a1.518 1.518 0 0 1 .34-.33Zm3.04-32.35-1.32 2.17a3.435 3.435 0 0 0-.45 2.32l.39 2.51a1.419 1.419 0 0 1-.56 1.37l-2.04 1.5a3.4 3.4 0 0 0-1.3 1.96l-.6 2.48a1.383 1.383 0 0 1-1.03 1.04l-2.45.6a3.357 3.357 0 0 0-1.95 1.32l-1.48 2.05a1.39 1.39 0 0 1-1.36.57l-2.48-.4a3.42 3.42 0 0 0-2.3.46l-2.16 1.33a1.374 1.374 0 0 1-1.46 0l-2.15-1.33a3.4 3.4 0 0 0-1.78-.5 4.55 4.55 0 0 0-.52.04l-2.49.4a1.382 1.382 0 0 1-1.35-.57l-1.49-2.05a3.357 3.357 0 0 0-1.95-1.32l-2.45-.6a1.383 1.383 0 0 1-1.03-1.04l-.59-2.48a3.412 3.412 0 0 0-1.31-1.96l-2.03-1.5a1.426 1.426 0 0 1-.57-1.37l.4-2.51a3.5 3.5 0 0 0-.46-2.32l-1.31-2.17a1.409 1.409 0 0 1 0-1.48l1.31-2.17a3.5 3.5 0 0 0 .46-2.32l-.39-2.52a1.391 1.391 0 0 1 .56-1.36l2.03-1.5a3.467 3.467 0 0 0 1.31-1.97l.59-2.47a1.383 1.383 0 0 1 1.03-1.04l2.45-.6a3.412 3.412 0 0 0 1.96-1.32l1.48-2.05a1.382 1.382 0 0 1 1.35-.57l2.49.39a3.331 3.331 0 0 0 2.3-.46l2.15-1.32a1.374 1.374 0 0 1 1.46 0l2.16 1.32a3.31 3.31 0 0 0 2.3.46l2.48-.39a1.39 1.39 0 0 1 1.36.57l1.48 2.05a3.389 3.389 0 0 0 1.95 1.32l2.45.6a1.383 1.383 0 0 1 1.03 1.04l.6 2.47a3.42 3.42 0 0 0 1.3 1.97l2.04 1.5a1.411 1.411 0 0 1 .56 1.36l-.39 2.52a3.435 3.435 0 0 0 .45 2.32l1.32 2.17a1.453 1.453 0 0 1 0 1.48Zm-10.13-3.88a1.788 1.788 0 0 0-1.51-1.24l-6.01-.72-2.53-5.55a1.8 1.8 0 0 0-3.28 0l-2.53 5.55-6.01.72a1.775 1.775 0 0 0-1.5 1.24 1.818 1.818 0 0 0 .49 1.9l4.44 4.15-1.18 5.99a1.819 1.819 0 0 0 1.77 2.18 1.767 1.767 0 0 0 .88-.24l5.28-2.98 5.28 2.98a1.757 1.757 0 0 0 1.94-.11 1.807 1.807 0 0 0 .71-1.83l-1.18-5.99 4.44-4.15a1.8 1.8 0 0 0 .5-1.9Zm-6.7 4.95a1.006 1.006 0 0 0-.3.94l1.2 6.13-5.4-3.05a.947.947 0 0 0-.49-.13.973.973 0 0 0-.49.13l-5.4 3.05 1.21-6.13a1.031 1.031 0 0 0-.3-.94l-4.55-4.24 6.15-.74a1.01 1.01 0 0 0 .79-.58l2.59-5.67 2.59 5.67a1.01 1.01 0 0 0 .79.58l6.15.74Z" transform="translate(-1381.06 -1269.06)" style="fill:#243f4d;fill-rule:evenodd"/>
</svg><svg viewBox="0 0 64 40" id="metrics-delivery-icon" xmlns="http://www.w3.org/2000/svg">
    <path d="m829.52 1297.96-1.658-6.55a1 1 0 0 0 .793-.97v-1.06a4.192 4.192 0 0 0-4.208-4.16H816.9v-2.17a2.063 2.063 0 0 0-2.071-2.05h-38.483a2.063 2.063 0 0 0-2.071 2.05V1301a1 1 0 0 0 2 0v-17.95a.068.068 0 0 1 .066-.07h38.481a.068.068 0 0 1 .066.07V1301a1 1 0 0 0 2 0v-1.12h11.826a3.27 3.27 0 0 1 3.114 2.24h-3.116a1 1 0 0 0-1 .99v2.11a3.131 3.131 0 0 0 3.14 3.11H832v4.35h-2.621a6.372 6.372 0 0 0-12 0h-.479v-7.46a1 1 0 0 0-2 0v7.46h-20.8a6.372 6.372 0 0 0-12 0h-5.761a.066.066 0 0 1-.066-.06v-2.18h4.342a.99.99 0 1 0 0-1.98H771a.99.99 0 1 0 0 1.98h3.274v2.18a2.061 2.061 0 0 0 2.071 2.04h5.413v.07a6.347 6.347 0 0 0 12.693 0v-.07h22.584v.07a6.347 6.347 0 0 0 12.693 0v-.07H833a.994.994 0 0 0 1-.99v-10.56a5.235 5.235 0 0 0-4.48-5.15Zm-12.62-10.76h7.549a2.2 2.2 0 0 1 2.2 2.18v.07H816.9v-2.25Zm0 10.7v-6.47h8.9l1.637 6.47H816.9Zm-28.8 21.12a4.29 4.29 0 1 1 4.343-4.29 4.325 4.325 0 0 1-4.343 4.29Zm35.274 0a4.29 4.29 0 1 1 4.342-4.29 4.325 4.325 0 0 1-4.338 4.29Zm8.626-12.67h-1.14a1.137 1.137 0 0 1-1.136-1.13v-1.12H832v2.25Zm-43.892 6.33a2.05 2.05 0 1 0 2.071 2.05 2.063 2.063 0 0 0-2.079-2.05Zm35.274 0a2.05 2.05 0 1 0 2.071 2.05 2.063 2.063 0 0 0-2.075-2.05Zm-11.758-4.22h-14.969a.99.99 0 1 0 0 1.98h14.965a.99.99 0 1 0 0-1.98Zm-25.653-4.23H773.14a.99.99 0 1 0 0 1.98h12.827a.99.99 0 1 0 0-1.98Zm18.879-13.44a1.023 1.023 0 0 0-1.417 0l-8.911 8.81-4.636-4.58a1 1 0 0 0-1.417 0 .98.98 0 0 0 0 1.4l5.344 5.28a1.01 1.01 0 0 0 1.417 0l9.62-9.51a.98.98 0 0 0-.004-1.4Z" transform="translate(-770 -1281)" style="fill:#243f4d;fill-rule:evenodd"/>
</svg><svg viewBox="0 0 64 57" id="metrics-monitor-icon" xmlns="http://www.w3.org/2000/svg">
    <path d="M530.635 1273h-57.27a3.368 3.368 0 0 0-3.365 3.36v41.14a3.368 3.368 0 0 0 3.365 3.36h21.691l-.877 7h-3.633a1.07 1.07 0 1 0 0 2.14h22.908a1.07 1.07 0 1 0 0-2.14h-3.634l-.877-7h21.692a3.368 3.368 0 0 0 3.365-3.36v-41.14a3.368 3.368 0 0 0-3.365-3.36Zm-34.291 54.86.877-7h9.558l.877 7h-11.312Zm35.508-10.36a1.213 1.213 0 0 1-1.217 1.21h-57.27a1.212 1.212 0 0 1-1.217-1.21v-41.14a1.221 1.221 0 0 1 1.217-1.22h57.27a1.222 1.222 0 0 1 1.217 1.22v41.14Zm-11.525-39.93h-44.672a1.072 1.072 0 0 0-1.073 1.07v35.43a1.072 1.072 0 0 0 1.073 1.07h3.437a1.07 1.07 0 1 0 0-2.14h-2.363v-33.29h43.6a1.07 1.07 0 1 0-.002-2.14Zm8.017 0h-3.436a1.07 1.07 0 1 0 0 2.14h2.363V1313h-43.6a1.07 1.07 0 1 0 0 2.14h44.671a1.073 1.073 0 0 0 1.074-1.07v-35.43a1.073 1.073 0 0 0-1.072-1.07Zm-6.872 5.72a3.352 3.352 0 0 0-2.97 4.93l-8.6 9.09a3.322 3.322 0 0 0-1.408-.31 3.361 3.361 0 0 0-2.314.92l-7.348-3.88a3.364 3.364 0 1 0-6.684-.54 3.352 3.352 0 0 0 .328 1.45l-8.406 8.14a3.331 3.331 0 0 0-1.539-.38 3.36 3.36 0 1 0 3.036 1.91l8.406-8.14a3.328 3.328 0 0 0 3.852-.55l7.348 3.88a3.54 3.54 0 0 0-.044.55 3.365 3.365 0 1 0 6.334-1.58l8.6-9.09a3.316 3.316 0 0 0 1.408.31 3.355 3.355 0 1 0 .001-6.71Zm-38.944 24a1.215 1.215 0 1 1 1.217-1.22 1.222 1.222 0 0 1-1.217 1.22Zm12.981-12.58a1.21 1.21 0 1 1 1.217-1.21 1.213 1.213 0 0 1-1.217 1.21Zm12.982 6.86a1.215 1.215 0 1 1 1.217-1.21 1.212 1.212 0 0 1-1.217 1.21Zm12.981-13.71a1.215 1.215 0 1 1 1.217-1.22 1.222 1.222 0 0 1-1.217 1.22Zm0 4.57a1.073 1.073 0 0 0-1.074 1.07v16a1.074 1.074 0 0 0 2.148 0v-16a1.073 1.073 0 0 0-1.074-1.07Zm-25.963 6.86a1.066 1.066 0 0 0-1.074 1.07v9.14a1.074 1.074 0 0 0 2.148 0v-9.14a1.066 1.066 0 0 0-1.074-1.07Zm12.982 6.85a1.073 1.073 0 0 0-1.074 1.07v2.29a1.074 1.074 0 0 0 2.147 0v-2.29a1.072 1.072 0 0 0-1.073-1.07Z" transform="translate(-470 -1273)" style="fill:#243f4d;fill-rule:evenodd"/>
</svg><svg viewBox="0 0 67 64" id="metrics-time-icon" xmlns="http://www.w3.org/2000/svg">
    <path d="M1135.06 1322.46a4.359 4.359 0 0 0-2.21-3.23l-11.59-6.45a4.614 4.614 0 0 0-5.46.74l-4.07 4.03a2.4 2.4 0 0 1-3.1.24 75.725 75.725 0 0 1-15.25-15.09 2.362 2.362 0 0 1 .24-3.07l4.07-4.03a4.484 4.484 0 0 0 .75-5.4l-6.52-11.46a4.37 4.37 0 0 0-3.26-2.19 4.685 4.685 0 0 0-3.96 1.34l-4.29 4.24c-3.04 3.01-3.2 8.38-.45 15.13 2.62 6.46 7.61 13.53 14.05 19.9s13.59 11.32 20.12 13.91a23.842 23.842 0 0 0 8.65 1.93 9.073 9.073 0 0 0 6.63-2.37l4.29-4.25a4.6 4.6 0 0 0 1.36-3.92Zm-2.89 2.4-.75.75-9.88-5.34a1.09 1.09 0 0 0-1.47.43 1.066 1.066 0 0 0 .43 1.46l9.32 5.03-1.94 1.92c-2.35 2.32-7.06 2.31-12.94-.03-6.27-2.49-13.15-7.26-19.39-13.44s-11.06-12.98-13.58-19.18c-2.36-5.82-2.37-10.49-.03-12.81l1.94-1.92 1.04 1.89a1.109 1.109 0 0 0 .96.56 1.095 1.095 0 0 0 .95-1.59l-1.35-2.44.75-.74a2.573 2.573 0 0 1 1.8-.76 1.841 1.841 0 0 1 .33.03 2.221 2.221 0 0 1 1.67 1.11l6.52 11.47a2.363 2.363 0 0 1-.39 2.83l-1.94 1.91-5.08-9.22a1.1 1.1 0 0 0-1.47-.43 1.078 1.078 0 0 0-.44 1.46l5.39 9.77-.53.53a4.5 4.5 0 0 0-.45 5.87 75.017 75.017 0 0 0 7.28 8.32 76.9 76.9 0 0 0 8.41 7.21 4.624 4.624 0 0 0 5.94-.44l.53-.53 2.46 1.33a1.112 1.112 0 0 0 .52.13 1.089 1.089 0 0 0 .96-.56 1.064 1.064 0 0 0-.44-1.45l-1.9-1.03 1.93-1.92a2.438 2.438 0 0 1 2.86-.39l11.59 6.45a2.244 2.244 0 0 1 1.13 1.65 2.517 2.517 0 0 1-.74 2.11Zm-2.14-28.37h-1.23v-9.24a1.085 1.085 0 0 0-2.17 0v9.24h-5.67l2.02-9a1.069 1.069 0 0 0-.82-1.28 1.083 1.083 0 0 0-1.3.81l-2.31 10.31a1.073 1.073 0 0 0 .21.9 1.091 1.091 0 0 0 .85.41h7.01v3.5a1.09 1.09 0 0 0 2.18 0v-3.5h1.22a1.075 1.075 0 1 0 .01-2.15Zm-13.89 4.58h-7.99c.47-1.23 1.81-2.01 3.73-3.05 2.38-1.29 5.34-2.88 5.34-6.51a5.729 5.729 0 0 0-11.43 0 1.085 1.085 0 0 0 2.17 0 3.566 3.566 0 0 1 7.09 0c0 2.19-1.59 3.21-4.21 4.62-2.36 1.28-5.05 2.73-5.05 6.01a1.084 1.084 0 0 0 1.09 1.08h9.26a1.075 1.075 0 1 0 0-2.15Zm22.93 12.62-2.11.42a26.086 26.086 0 0 0 8.04-18.84 26.608 26.608 0 0 0-48.27-15.11 1.065 1.065 0 0 0 .26 1.5 1.1 1.1 0 0 0 1.51-.26 24.436 24.436 0 0 1 44.33 13.87 23.961 23.961 0 0 1-7.59 17.5l.48-2.4a1.069 1.069 0 0 0-.85-1.26 1.085 1.085 0 0 0-1.28.84l-1.16 5.73a1.069 1.069 0 0 0 .3.97 1.107 1.107 0 0 0 .77.31.749.749 0 0 0 .21-.02l5.79-1.14a1.077 1.077 0 1 0-.43-2.11Zm-20.62-40.11a1.073 1.073 0 0 0-1.08 1.07v2.3a1.085 1.085 0 0 0 2.17 0v-2.3a1.082 1.082 0 0 0-1.09-1.07Zm20.83 20.62h-2.31a1.075 1.075 0 1 0 0 2.15h2.31a1.075 1.075 0 1 0 0-2.15Zm-36.33-9.02-2-1.15a1.091 1.091 0 0 0-1.48.4 1.064 1.064 0 0 0 .39 1.46l2.01 1.15a1.063 1.063 0 0 0 .54.14 1.081 1.081 0 0 0 .94-.53 1.07 1.07 0 0 0-.4-1.47Zm34.09 19.47-2.01-1.14a1.075 1.075 0 1 0-1.08 1.86l2 1.14a1.063 1.063 0 0 0 .54.14 1.081 1.081 0 0 0 .94-.53 1.067 1.067 0 0 0-.39-1.47Zm-7.63-28.16a1.088 1.088 0 0 0-1.48.39l-1.16 1.98a1.074 1.074 0 0 0 .94 1.61 1.093 1.093 0 0 0 .94-.53l1.16-1.99a1.059 1.059 0 0 0-.4-1.46Zm-19.68 33.72a1.091 1.091 0 0 0-1.48.4l-1.16 1.98a1.073 1.073 0 0 0 .4 1.47 1.174 1.174 0 0 0 .54.14 1.07 1.07 0 0 0 .94-.54l1.16-1.98a1.073 1.073 0 0 0-.4-1.47Zm27.7-25.78a1.091 1.091 0 0 0-1.48-.4l-2 1.15a1.07 1.07 0 0 0-.4 1.47 1.093 1.093 0 0 0 .94.53 1.063 1.063 0 0 0 .54-.14l2.01-1.15a1.056 1.056 0 0 0 .39-1.46Zm-34.08 19.47a1.079 1.079 0 0 0-1.48-.39l-2.01 1.14a1.072 1.072 0 0 0 .55 2 1.063 1.063 0 0 0 .54-.14l2-1.14a1.073 1.073 0 0 0 .4-1.47Zm6.78-25.04-1.16-1.98a1.088 1.088 0 0 0-1.48-.39 1.059 1.059 0 0 0-.4 1.46l1.16 1.99a1.1 1.1 0 0 0 .94.54 1.048 1.048 0 0 0 .54-.15 1.07 1.07 0 0 0 .4-1.47Zm19.68 33.73-1.16-1.98a1.091 1.091 0 0 0-1.48-.4 1.073 1.073 0 0 0-.4 1.47l1.16 1.98a1.07 1.07 0 0 0 .94.54 1.174 1.174 0 0 0 .54-.14 1.073 1.073 0 0 0 .4-1.47Z" transform="translate(-1078 -1269)" style="fill:#243f4d;fill-rule:evenodd"/>
</svg><svg viewBox="0 0 20.03 20.031" id="more-icon" xmlns="http://www.w3.org/2000/svg">
    <path d="M1813.15 67.881a2.146 2.146 0 1 1 2.14-2.145 2.145 2.145 0 0 1-2.14 2.145Zm0 7.869a2.146 2.146 0 1 1 2.14-2.147 2.146 2.146 0 0 1-2.14 2.147Zm0 7.868a2.146 2.146 0 1 1 2.14-2.146 2.145 2.145 0 0 1-2.14 2.146Zm7.86-15.737a2.146 2.146 0 1 1 2.15-2.145 2.143 2.143 0 0 1-2.15 2.145Zm0 7.869a2.146 2.146 0 1 1 2.15-2.147 2.144 2.144 0 0 1-2.15 2.147Zm0 7.868a2.146 2.146 0 1 1 2.15-2.146 2.143 2.143 0 0 1-2.15 2.146Zm7.87-15.737a2.146 2.146 0 1 1 2.15-2.145 2.143 2.143 0 0 1-2.15 2.145Zm0 7.869a2.146 2.146 0 1 1 2.15-2.147 2.144 2.144 0 0 1-2.15 2.147Zm0 7.868a2.146 2.146 0 1 1 2.15-2.146 2.143 2.143 0 0 1-2.15 2.146Z" transform="translate(-1811 -63.594)" style="fill:#fff;fill-rule:evenodd"/>
</svg><svg viewBox="0 0 36.41 37.719" id="project-icon" xmlns="http://www.w3.org/2000/svg">
    <path d="M993.975 958.96a1.984 1.984 0 0 1-1.975-1.991v-27.278a.915.915 0 0 1 .264-.643l7.476-7.542a.9.9 0 0 1 .638-.267h19.09a1.98 1.98 0 0 1 1.97 1.991v2.87a.9.9 0 1 1-1.8 0v-2.87a.172.172 0 0 0-.17-.17h-18.19v5.552a1.98 1.98 0 0 1-1.97 1.99h-5.5v26.367a.17.17 0 0 0 .168.17h25.5a.173.173 0 0 0 .17-.17v-13.9a.9.9 0 1 1 1.8 0v13.9a1.98 1.98 0 0 1-1.97 1.991h-25.5Zm1.108-30.178h4.227a.17.17 0 0 0 .168-.17v-4.265Zm3.976 23.708a.91.91 0 0 1 0-1.82H1003l1.39-5.066a.9.9 0 0 1 .23-.4l.02-.015h-5.581a.91.91 0 0 1 0-1.82h7.381l5.43-5.48h-12.811a.911.911 0 0 1 0-1.821h14.621l8.43-8.5a3.038 3.038 0 0 1 4.32 0l1.06 1.071a3.1 3.1 0 0 1 0 4.356L1010 950.632a.889.889 0 0 1-.39.234l-5.7 1.6c-.03.007-.23.029-.23.029h-4.621Zm5.921-2.218 2.65-.744-1.91-1.933Zm1.56-4.424 2.83 2.853 14.43-14.562-2.83-2.852Zm16.84-17-1.13 1.152 2.83 2.853 1.13-1.147a1.264 1.264 0 0 0 0-1.782l-1.06-1.071a1.225 1.225 0 0 0-.88-.369 1.265 1.265 0 0 0-.89.368Z" transform="translate(-992 -921.25)" style="fill:#a3bbc8;fill-rule:evenodd"/>
</svg><svg viewBox="0 0 43.12 39.094" id="revenue-icon" xmlns="http://www.w3.org/2000/svg">
    <path d="M1227.87 929.648v-7.126a2.174 2.174 0 0 0-1.05-1.887 2.076 2.076 0 0 0-2.13-.021 48.669 48.669 0 0 1-20.7 6.383l-6.68.034a3.286 3.286 0 0 0-3.23 2.949h-1.36a2.749 2.749 0 0 0-2.71 2.774v6.1a2.748 2.748 0 0 0 2.71 2.774h1.36a3.32 3.32 0 0 0 1.91 2.664l4.85 13.723a2.118 2.118 0 0 0 1.98 1.428h4.86a2.1 2.1 0 0 0 1.73-.925 2.221 2.221 0 0 0 .25-1.986l-4.15-11.785a48.668 48.668 0 0 1 19.18 6.244 2.08 2.08 0 0 0 2.13-.021 2.174 2.174 0 0 0 1.05-1.887v-7.126a6.228 6.228 0 0 0 0-12.309Zm-33.82 9.836h-1.33a.622.622 0 0 1-.62-.634v-6.1a.623.623 0 0 1 .62-.634h1.33v7.364Zm2.78 2.844a1.2 1.2 0 0 1-.69-1.1v-10.854a1.185 1.185 0 0 1 1.17-1.2h5.67v13.262h-5.75a1.027 1.027 0 0 1-.4-.108Zm10.88 14.93a.037.037 0 0 1-.01.028c-.01.013-.01.013-.02.013h-4.86a.049.049 0 0 1-.03-.018l-4.48-12.708h4.92Zm18.08-8.179a.037.037 0 0 1-.03.041.04.04 0 0 1-.05 0 50.66 50.66 0 0 0-20.65-6.57v-13.5a50.692 50.692 0 0 0 20.65-6.571.04.04 0 0 1 .05 0 .037.037 0 0 1 .03.041v26.557Zm2.08-9.292v-7.974a4.089 4.089 0 0 1 0 7.974Z" transform="translate(-1190 -920.344)" style="fill:#a3bbc8;fill-rule:evenodd"/>
</svg><svg viewBox="0 0 15.28 15.281" id="search-icon" xmlns="http://www.w3.org/2000/svg">
    <path d="M1547.7 72.076a.617.617 0 0 1 .75.484 2.585 2.585 0 0 0 .78 1.489 3.039 3.039 0 0 0 1.49.777.635.635 0 0 1 .49.743.649.649 0 0 1-.72.515 4.212 4.212 0 0 1-2.14-1.131 4.166 4.166 0 0 1-1.13-2.135.6.6 0 0 1 .48-.742Zm3.28-6.08a6.267 6.267 0 0 1 6.28 6.256 6.137 6.137 0 0 1-.57 2.6l2.34 2.036c1.7 1.746.74 3.266.29 3.717-.42.453-1.99 1.414-3.73-.292l-2.06-2.35A6.261 6.261 0 1 1 1550.98 66Zm5.55 13.516a1.352 1.352 0 0 0 1.88.226 1.313 1.313 0 0 0-.23-1.874l-2.16-1.88a6.222 6.222 0 0 1-1.37 1.34Zm-5.55-2.312a4.948 4.948 0 1 0-4.97-4.948 4.962 4.962 0 0 0 4.97 4.948Z" transform="translate(-1544.72 -66)" style="fill:#243f4d;fill-rule:evenodd"/>
</svg><svg viewBox="0 0 53.56 52.25" id="secure-icon" xmlns="http://www.w3.org/2000/svg">
    <circle cx="43.75" cy="42.45" r="9.81" style="opacity:.34;fill:#a3bbc8"/>
    <path d="M1444.43 1042.32a.83.83 0 0 0-.84.83v8.27a2.164 2.164 0 0 1-2.16 2.16h-39.34a2.164 2.164 0 0 1-2.16-2.16v-11.92h27.29a.84.84 0 1 0 0-1.68h-27.29v-5.47h9.87a.828.828 0 0 0 .83-.83.837.837 0 0 0-.83-.84h-9.87v-2.88a2.166 2.166 0 0 1 2.16-2.17h25.13a.835.835 0 1 0 0-1.67h-25.13a3.839 3.839 0 0 0-3.83 3.84v23.62a3.837 3.837 0 0 0 3.83 3.83h39.34a3.837 3.837 0 0 0 3.83-3.83v-8.27a.828.828 0 0 0-.83-.83Zm-17.21-11.64H1413a.837.837 0 0 0-.83.84.828.828 0 0 0 .83.83h14.22a.837.837 0 0 0 .84-.83.845.845 0 0 0-.84-.84Zm-9.24 11.56h-14.27a.835.835 0 0 0 0 1.67h14.27a.835.835 0 1 0 0-1.67Zm-6.08 3.99h-8.19a.835.835 0 0 0 0 1.67h8.19a.835.835 0 0 0 0-1.67Zm34.63-13.61a.832.832 0 0 0 .84-.84v-4.77a3.038 3.038 0 0 0-2.39-2.97v-6.02a6.6 6.6 0 1 0-13.19 0v6.02a3.053 3.053 0 0 0-2.4 2.97v10.75a3.045 3.045 0 0 0 3.04 3.04h11.9a3.039 3.039 0 0 0 3.04-3.04v-3.19a.835.835 0 0 0-1.67 0v3.19a1.379 1.379 0 0 1-1.37 1.37h-11.9a1.379 1.379 0 0 1-1.37-1.37v-10.75a1.379 1.379 0 0 1 1.37-1.37h11.9a1.379 1.379 0 0 1 1.37 1.37v4.77a.83.83 0 0 0 .83.84Zm-3.23-8.65h-9.84v-5.95a4.92 4.92 0 1 1 9.84 0v5.95Zm-4.92 4.32a3.092 3.092 0 0 0-.83 6.07v2.04a.83.83 0 0 0 .83.84.839.839 0 0 0 .84-.84v-2.04a3.094 3.094 0 0 0-.84-6.07Zm0 4.52a1.425 1.425 0 1 1 1.42-1.43 1.428 1.428 0 0 1-1.42 1.43Z" transform="translate(-1398.25 -1011.41)" style="fill-rule:evenodd;fill:#a3bbc8"/>
</svg><svg viewBox="0 0 50.875 53.13" id="support-icon" xmlns="http://www.w3.org/2000/svg">
    <path d="M268.312 1022.67a.937.937 0 0 0-1.592.99 22.684 22.684 0 0 1-32.86 30.14.938.938 0 0 0-1.125 1.5 24.559 24.559 0 0 0 35.577-32.63Zm-23.03 21.94h-7.55l4.743-4.75a12.68 12.68 0 0 0 3.744-9.03 5.844 5.844 0 1 0-11.688 0 .938.938 0 0 0 1.875 0 3.969 3.969 0 1 1 7.938 0 10.836 10.836 0 0 1-3.195 7.71l-6.344 6.34a.949.949 0 0 0-.2 1.03.93.93 0 0 0 .866.57h9.813a.935.935 0 1 0-.002-1.87Zm15.039-6.44h-2.6v-1.52a.938.938 0 0 0-1.875 0v1.52h-5.286l5.286-8.85v4.21a.938.938 0 1 0 1.875 0v-7.62a.957.957 0 0 0-.456-.8.94.94 0 0 0-1.286.33l-7.875 13.19a.933.933 0 0 0-.011.94.951.951 0 0 0 .816.48h6.938v5.5a.938.938 0 0 0 1.875 0v-5.5h2.6a.94.94 0 0 0-.001-1.88Zm5.33-22.63a.938.938 0 1 0-1.875.04l.042 1.75a24.556 24.556 0 0 0-33.549 35.85.93.93 0 0 0 .656.27.92.92 0 0 0 .669-.28.942.942 0 0 0-.013-1.33 22.679 22.679 0 0 1 15.882-38.87 22.745 22.745 0 0 1 15.107 5.77l-1.843.04a.935.935 0 0 0 .022 1.87h.023l4.06-.09a.934.934 0 0 0 .915-.96Z" transform="translate(-222.906 -1011.09)" style="fill:#a3bbc8;fill-rule:evenodd"/>
    <path d="M263.984 1044.59a9.815 9.815 0 1 1-9.8 9.82 9.811 9.811 0 0 1 9.8-9.82Z" transform="translate(-222.906 -1011.09)" style="opacity:.34;fill:#a3bbc8;fill-rule:evenodd"/>
</svg></svg>