<?xml version="1.0" encoding="utf-8"?><svg viewBox="0 0 50.125 38.875" xmlns="http://www.w3.org/2000/svg" xmlns:xlink="http://www.w3.org/1999/xlink"><style>:root>svg{display:none}:root>svg:target{display:block}</style><svg viewBox="0 0 18.94 16.969" id="cart-icon" xmlns="http://www.w3.org/2000/svg">
    <path d="M1721.53 85.978a2.074 2.074 0 1 1 0-4.147 2.057 2.057 0 0 1 1.46.6 2.031 2.031 0 0 1 .61 1.466 2.07 2.07 0 0 1-2.07 2.081Zm0-2.963a.889.889 0 1 0 .34 1.71.9.9 0 0 0 .55-.824.92.92 0 0 0-.26-.628.9.9 0 0 0-.63-.259Zm8.39 2.963a2.045 2.045 0 0 1-1.46-.606 2.068 2.068 0 0 1 1.46-3.541 1.954 1.954 0 0 1 1.47.6 2.085 2.085 0 0 1-.67 3.383 2.1 2.1 0 0 1-.8.164Zm0-2.963a.979.979 0 0 0-.82.549.887.887 0 0 0 1.16 1.162.891.891 0 0 0 .29-1.453.9.9 0 0 0-.63-.259Zm-11.27.164a.561.561 0 0 1-.25-.056.59.59 0 0 1-.29-.787 3.686 3.686 0 0 1 3.05-2.151l-1.05-5.391a.591.591 0 1 1 1.16-.228l1.09 5.578h9.43l1.8-6.771h-13.3a4.346 4.346 0 0 1-4.28-3.693.587.587 0 0 1 .49-.673.6.6 0 0 1 .68.5 3.16 3.16 0 0 0 3.11 2.682h14.07a.581.581 0 0 1 .47.232.594.594 0 0 1 .11.513l-2.13 7.956a.59.59 0 0 1-.57.44h-10.36a.035.035 0 0 0-.02 0 2.66 2.66 0 0 0-2.68 1.51.586.586 0 0 1-.53.338Z" transform="translate(-1716 -69)" style="fill:#243f4d;fill-rule:evenodd"/>
</svg><svg fill="none" viewBox="0 0 18 16" id="heart-icon" xmlns="http://www.w3.org/2000/svg">
    <path fill-rule="evenodd" clip-rule="evenodd" d="M8.93 15.523a.705.705 0 0 1-.28-.056C8.297 15.317 0 11.717 0 4.707.091 2.057 2.207 0 4.817 0 6.561 0 8.085.918 8.93 2.31A4.796 4.796 0 0 1 13.042 0c2.61 0 4.725 2.058 4.817 4.684 0 7.033-8.297 10.633-8.65 10.783a.71.71 0 0 1-.28.056ZM4.818 1.385c-1.847 0-3.343 1.47-3.408 3.346 0 5.407 6.125 8.663 7.52 9.335 1.395-.672 7.52-3.93 7.52-9.359-.066-1.852-1.563-3.322-3.408-3.322S9.7 2.855 9.634 4.731a.7.7 0 0 1-.704.67.7.7 0 0 1-.705-.67C8.16 2.855 6.664 1.385 4.818 1.385Z" fill="#243F4D"/>
</svg><svg viewBox="0 0 50.125 38.875" id="logo-icon" xmlns="http://www.w3.org/2000/svg">
    <path data-name="Path 324" d="M76.157 79.674a1.13 1.13 0 0 0 .622.387l48.041 9.8a1.137 1.137 0 0 0 .908-.212.874.874 0 0 0 .31-.8l-6.251-37.079a.962.962 0 0 0-.449-.645 1.337 1.337 0 0 0-.965-.051L83.179 65.118a.9.9 0 0 0-.507.452c-.171.325-6.494 13.076-6.583 13.257a.806.806 0 0 0 .068.847Zm45.586 6.436-20.05-11.145 10.339-2.159Zm-37.7-18.883 12.526 6.983-17.833 3.715Zm1.662-1.172 31.535-12.587-5.558 17.587-12.371 2.584Zm37.658 18.995-9.779-13.4 4.9-15.52Zm-3.886 1.9-38.051-7.763 17.523-3.65Z" transform="translate(-76 -51)" style="fill:#a3bbc8;fill-rule:evenodd"/>
</svg><svg viewBox="0 0 20.03 20.031" id="more-icon" xmlns="http://www.w3.org/2000/svg">
    <path d="M1813.15 67.881a2.146 2.146 0 1 1 2.14-2.145 2.145 2.145 0 0 1-2.14 2.145Zm0 7.869a2.146 2.146 0 1 1 2.14-2.147 2.146 2.146 0 0 1-2.14 2.147Zm0 7.868a2.146 2.146 0 1 1 2.14-2.146 2.145 2.145 0 0 1-2.14 2.146Zm7.86-15.737a2.146 2.146 0 1 1 2.15-2.145 2.143 2.143 0 0 1-2.15 2.145Zm0 7.869a2.146 2.146 0 1 1 2.15-2.147 2.144 2.144 0 0 1-2.15 2.147Zm0 7.868a2.146 2.146 0 1 1 2.15-2.146 2.143 2.143 0 0 1-2.15 2.146Zm7.87-15.737a2.146 2.146 0 1 1 2.15-2.145 2.143 2.143 0 0 1-2.15 2.145Zm0 7.869a2.146 2.146 0 1 1 2.15-2.147 2.144 2.144 0 0 1-2.15 2.147Zm0 7.868a2.146 2.146 0 1 1 2.15-2.146 2.143 2.143 0 0 1-2.15 2.146Z" transform="translate(-1811 -63.594)" style="fill:#fff;fill-rule:evenodd"/>
</svg><svg viewBox="0 0 15.28 15.281" id="search-icon" xmlns="http://www.w3.org/2000/svg">
    <path d="M1547.7 72.076a.617.617 0 0 1 .75.484 2.585 2.585 0 0 0 .78 1.489 3.039 3.039 0 0 0 1.49.777.635.635 0 0 1 .49.743.649.649 0 0 1-.72.515 4.212 4.212 0 0 1-2.14-1.131 4.166 4.166 0 0 1-1.13-2.135.6.6 0 0 1 .48-.742Zm3.28-6.08a6.267 6.267 0 0 1 6.28 6.256 6.137 6.137 0 0 1-.57 2.6l2.34 2.036c1.7 1.746.74 3.266.29 3.717-.42.453-1.99 1.414-3.73-.292l-2.06-2.35A6.261 6.261 0 1 1 1550.98 66Zm5.55 13.516a1.352 1.352 0 0 0 1.88.226 1.313 1.313 0 0 0-.23-1.874l-2.16-1.88a6.222 6.222 0 0 1-1.37 1.34Zm-5.55-2.312a4.948 4.948 0 1 0-4.97-4.948 4.962 4.962 0 0 0 4.97 4.948Z" transform="translate(-1544.72 -66)" style="fill:#243f4d;fill-rule:evenodd"/>
</svg></svg>