<?xml version="1.0" encoding="utf-8"?><svg viewBox="0 0 53.75 53.13" xmlns="http://www.w3.org/2000/svg" xmlns:xlink="http://www.w3.org/1999/xlink"><style>:root>svg{display:none}:root>svg:target{display:block}</style><svg viewBox="0 0 18.94 16.969" id="cart-icon" xmlns="http://www.w3.org/2000/svg">
    <path d="M1721.53 85.978a2.074 2.074 0 1 1 0-4.147 2.057 2.057 0 0 1 1.46.6 2.031 2.031 0 0 1 .61 1.466 2.07 2.07 0 0 1-2.07 2.081Zm0-2.963a.889.889 0 1 0 .34 1.71.9.9 0 0 0 .55-.824.92.92 0 0 0-.26-.628.9.9 0 0 0-.63-.259Zm8.39 2.963a2.045 2.045 0 0 1-1.46-.606 2.068 2.068 0 0 1 1.46-3.541 1.954 1.954 0 0 1 1.47.6 2.085 2.085 0 0 1-.67 3.383 2.1 2.1 0 0 1-.8.164Zm0-2.963a.979.979 0 0 0-.82.549.887.887 0 0 0 1.16 1.162.891.891 0 0 0 .29-1.453.9.9 0 0 0-.63-.259Zm-11.27.164a.561.561 0 0 1-.25-.056.59.59 0 0 1-.29-.787 3.686 3.686 0 0 1 3.05-2.151l-1.05-5.391a.591.591 0 1 1 1.16-.228l1.09 5.578h9.43l1.8-6.771h-13.3a4.346 4.346 0 0 1-4.28-3.693.587.587 0 0 1 .49-.673.6.6 0 0 1 .68.5 3.16 3.16 0 0 0 3.11 2.682h14.07a.581.581 0 0 1 .47.232.594.594 0 0 1 .11.513l-2.13 7.956a.59.59 0 0 1-.57.44h-10.36a.035.035 0 0 0-.02 0 2.66 2.66 0 0 0-2.68 1.51.586.586 0 0 1-.53.338Z" transform="translate(-1716 -69)" style="fill:#243f4d;fill-rule:evenodd"/>
</svg><svg viewBox="0 0 53.75 36.44" id="delivery-icon" xmlns="http://www.w3.org/2000/svg">
    <circle cx="43.938" cy="26.645" r="9.812" style="opacity:.34;fill:#a3bbc8"/>
    <path d="M812.816 1025.33h-6.126a.79.79 0 0 0 0 1.58h6.126a.79.79 0 0 0 0-1.58Zm.524 11.01h-5.6a.785.785 0 1 0 0 1.57h5.6a.785.785 0 1 0 0-1.57Zm-2.094-4.72H804.6a.79.79 0 0 0 0 1.58h6.65a.79.79 0 0 0-.004-1.58Zm0 11.01h-.646a.785.785 0 1 0 0 1.57h.644a.785.785 0 1 0 .002-1.57Zm-3.263 0H804.6a.785.785 0 1 0 0 1.57h3.387a.785.785 0 1 0-.004-1.57Zm36.86-19.86h-6.657v-1.42a.784.784 0 0 0-.786-.78h-12.175a.785.785 0 1 0 0 1.57h11.39v17.22a.786.786 0 1 0 1.571 0v-15.02h6.657a6.519 6.519 0 0 1 6.509 6.52v13.29h-2a4.974 4.974 0 0 0-9.824 0h-1.345v-1.12a.786.786 0 1 0-1.571 0v1.12h-8.336a4.974 4.974 0 0 0-9.823 0h-1.634v-22.01h5.261a.785.785 0 1 0 0-1.57h-6.046a.783.783 0 0 0-.785.78v23.59a.791.791 0 0 0 .785.79h2.419a4.974 4.974 0 0 0 9.823 0h11.252a4.974 4.974 0 0 0 9.824 0h2.782a.791.791 0 0 0 .785-.79v-14.08a8.094 8.094 0 0 0-8.076-8.09Zm-21.475 25.58a3.41 3.41 0 1 1 3.4-3.41 3.411 3.411 0 0 1-3.4 3.41Zm21.075 0a3.411 3.411 0 0 1-3.4-3.41 3.4 3.4 0 1 1 3.4 3.41Zm.4-22.44h-4.3a.791.791 0 0 0-.785.79v7.39a.791.791 0 0 0 .785.79H849a.792.792 0 0 0 .786-.79v-3.23a4.949 4.949 0 0 0-4.943-4.95Zm3.367 7.39h-6.882v-5.81h3.515a3.371 3.371 0 0 1 3.367 3.37v2.44Zm-24.842 9.61a2.03 2.03 0 1 0 2.024 2.03 2.029 2.029 0 0 0-2.024-2.03Zm0 2.49a.46.46 0 0 1-.455-.46.455.455 0 0 1 .909 0 .46.46 0 0 1-.454.46Zm21.075-2.49a2.03 2.03 0 1 0 2.025 2.03 2.03 2.03 0 0 0-2.025-2.03Zm0 2.49a.46.46 0 0 1-.454-.46.454.454 0 0 1 .908 0 .46.46 0 0 1-.454.46Zm4.552-8.37a.783.783 0 0 0-.785.78v1.99a.786.786 0 1 0 1.571 0v-1.99a.784.784 0 0 0-.781-.78Z" transform="translate(-803.812 -1020.56)" style="fill-rule:evenodd;fill:#a3bbc8"/>
</svg><svg fill="none" viewBox="0 0 18 16" id="heart-icon" xmlns="http://www.w3.org/2000/svg">
    <path fill-rule="evenodd" clip-rule="evenodd" d="M8.93 15.523a.705.705 0 0 1-.28-.056C8.297 15.317 0 11.717 0 4.707.091 2.057 2.207 0 4.817 0 6.561 0 8.085.918 8.93 2.31A4.796 4.796 0 0 1 13.042 0c2.61 0 4.725 2.058 4.817 4.684 0 7.033-8.297 10.633-8.65 10.783a.71.71 0 0 1-.28.056ZM4.818 1.385c-1.847 0-3.343 1.47-3.408 3.346 0 5.407 6.125 8.663 7.52 9.335 1.395-.672 7.52-3.93 7.52-9.359-.066-1.852-1.563-3.322-3.408-3.322S9.7 2.855 9.634 4.731a.7.7 0 0 1-.704.67.7.7 0 0 1-.705-.67C8.16 2.855 6.664 1.385 4.818 1.385Z" fill="#243F4D"/>
</svg><svg viewBox="0 0 50.125 38.875" id="logo-icon" xmlns="http://www.w3.org/2000/svg">
    <path data-name="Path 324" d="M76.157 79.674a1.13 1.13 0 0 0 .622.387l48.041 9.8a1.137 1.137 0 0 0 .908-.212.874.874 0 0 0 .31-.8l-6.251-37.079a.962.962 0 0 0-.449-.645 1.337 1.337 0 0 0-.965-.051L83.179 65.118a.9.9 0 0 0-.507.452c-.171.325-6.494 13.076-6.583 13.257a.806.806 0 0 0 .068.847Zm45.586 6.436-20.05-11.145 10.339-2.159Zm-37.7-18.883 12.526 6.983-17.833 3.715Zm1.662-1.172 31.535-12.587-5.558 17.587-12.371 2.584Zm37.658 18.995-9.779-13.4 4.9-15.52Zm-3.886 1.9-38.051-7.763 17.523-3.65Z" transform="translate(-76 -51)" style="fill:#a3bbc8;fill-rule:evenodd"/>
</svg><svg viewBox="0 0 20.03 20.031" id="more-icon" xmlns="http://www.w3.org/2000/svg">
    <path d="M1813.15 67.881a2.146 2.146 0 1 1 2.14-2.145 2.145 2.145 0 0 1-2.14 2.145Zm0 7.869a2.146 2.146 0 1 1 2.14-2.147 2.146 2.146 0 0 1-2.14 2.147Zm0 7.868a2.146 2.146 0 1 1 2.14-2.146 2.145 2.145 0 0 1-2.14 2.146Zm7.86-15.737a2.146 2.146 0 1 1 2.15-2.145 2.143 2.143 0 0 1-2.15 2.145Zm0 7.869a2.146 2.146 0 1 1 2.15-2.147 2.144 2.144 0 0 1-2.15 2.147Zm0 7.868a2.146 2.146 0 1 1 2.15-2.146 2.143 2.143 0 0 1-2.15 2.146Zm7.87-15.737a2.146 2.146 0 1 1 2.15-2.145 2.143 2.143 0 0 1-2.15 2.145Zm0 7.869a2.146 2.146 0 1 1 2.15-2.147 2.144 2.144 0 0 1-2.15 2.147Zm0 7.868a2.146 2.146 0 1 1 2.15-2.146 2.143 2.143 0 0 1-2.15 2.146Z" transform="translate(-1811 -63.594)" style="fill:#fff;fill-rule:evenodd"/>
</svg><svg viewBox="0 0 15.28 15.281" id="search-icon" xmlns="http://www.w3.org/2000/svg">
    <path d="M1547.7 72.076a.617.617 0 0 1 .75.484 2.585 2.585 0 0 0 .78 1.489 3.039 3.039 0 0 0 1.49.777.635.635 0 0 1 .49.743.649.649 0 0 1-.72.515 4.212 4.212 0 0 1-2.14-1.131 4.166 4.166 0 0 1-1.13-2.135.6.6 0 0 1 .48-.742Zm3.28-6.08a6.267 6.267 0 0 1 6.28 6.256 6.137 6.137 0 0 1-.57 2.6l2.34 2.036c1.7 1.746.74 3.266.29 3.717-.42.453-1.99 1.414-3.73-.292l-2.06-2.35A6.261 6.261 0 1 1 1550.98 66Zm5.55 13.516a1.352 1.352 0 0 0 1.88.226 1.313 1.313 0 0 0-.23-1.874l-2.16-1.88a6.222 6.222 0 0 1-1.37 1.34Zm-5.55-2.312a4.948 4.948 0 1 0-4.97-4.948 4.962 4.962 0 0 0 4.97 4.948Z" transform="translate(-1544.72 -66)" style="fill:#243f4d;fill-rule:evenodd"/>
</svg><svg viewBox="0 0 53.56 52.25" id="secure-icon" xmlns="http://www.w3.org/2000/svg">
    <circle cx="43.75" cy="42.45" r="9.81" style="opacity:.34;fill:#a3bbc8"/>
    <path d="M1444.43 1042.32a.83.83 0 0 0-.84.83v8.27a2.164 2.164 0 0 1-2.16 2.16h-39.34a2.164 2.164 0 0 1-2.16-2.16v-11.92h27.29a.84.84 0 1 0 0-1.68h-27.29v-5.47h9.87a.828.828 0 0 0 .83-.83.837.837 0 0 0-.83-.84h-9.87v-2.88a2.166 2.166 0 0 1 2.16-2.17h25.13a.835.835 0 1 0 0-1.67h-25.13a3.839 3.839 0 0 0-3.83 3.84v23.62a3.837 3.837 0 0 0 3.83 3.83h39.34a3.837 3.837 0 0 0 3.83-3.83v-8.27a.828.828 0 0 0-.83-.83Zm-17.21-11.64H1413a.837.837 0 0 0-.83.84.828.828 0 0 0 .83.83h14.22a.837.837 0 0 0 .84-.83.845.845 0 0 0-.84-.84Zm-9.24 11.56h-14.27a.835.835 0 0 0 0 1.67h14.27a.835.835 0 1 0 0-1.67Zm-6.08 3.99h-8.19a.835.835 0 0 0 0 1.67h8.19a.835.835 0 0 0 0-1.67Zm34.63-13.61a.832.832 0 0 0 .84-.84v-4.77a3.038 3.038 0 0 0-2.39-2.97v-6.02a6.6 6.6 0 1 0-13.19 0v6.02a3.053 3.053 0 0 0-2.4 2.97v10.75a3.045 3.045 0 0 0 3.04 3.04h11.9a3.039 3.039 0 0 0 3.04-3.04v-3.19a.835.835 0 0 0-1.67 0v3.19a1.379 1.379 0 0 1-1.37 1.37h-11.9a1.379 1.379 0 0 1-1.37-1.37v-10.75a1.379 1.379 0 0 1 1.37-1.37h11.9a1.379 1.379 0 0 1 1.37 1.37v4.77a.83.83 0 0 0 .83.84Zm-3.23-8.65h-9.84v-5.95a4.92 4.92 0 1 1 9.84 0v5.95Zm-4.92 4.32a3.092 3.092 0 0 0-.83 6.07v2.04a.83.83 0 0 0 .83.84.839.839 0 0 0 .84-.84v-2.04a3.094 3.094 0 0 0-.84-6.07Zm0 4.52a1.425 1.425 0 1 1 1.42-1.43 1.428 1.428 0 0 1-1.42 1.43Z" transform="translate(-1398.25 -1011.41)" style="fill-rule:evenodd;fill:#a3bbc8"/>
</svg><svg viewBox="0 0 50.875 53.13" id="support-icon" xmlns="http://www.w3.org/2000/svg">
    <path d="M268.312 1022.67a.937.937 0 0 0-1.592.99 22.684 22.684 0 0 1-32.86 30.14.938.938 0 0 0-1.125 1.5 24.559 24.559 0 0 0 35.577-32.63Zm-23.03 21.94h-7.55l4.743-4.75a12.68 12.68 0 0 0 3.744-9.03 5.844 5.844 0 1 0-11.688 0 .938.938 0 0 0 1.875 0 3.969 3.969 0 1 1 7.938 0 10.836 10.836 0 0 1-3.195 7.71l-6.344 6.34a.949.949 0 0 0-.2 1.03.93.93 0 0 0 .866.57h9.813a.935.935 0 1 0-.002-1.87Zm15.039-6.44h-2.6v-1.52a.938.938 0 0 0-1.875 0v1.52h-5.286l5.286-8.85v4.21a.938.938 0 1 0 1.875 0v-7.62a.957.957 0 0 0-.456-.8.94.94 0 0 0-1.286.33l-7.875 13.19a.933.933 0 0 0-.011.94.951.951 0 0 0 .816.48h6.938v5.5a.938.938 0 0 0 1.875 0v-5.5h2.6a.94.94 0 0 0-.001-1.88Zm5.33-22.63a.938.938 0 1 0-1.875.04l.042 1.75a24.556 24.556 0 0 0-33.549 35.85.93.93 0 0 0 .656.27.92.92 0 0 0 .669-.28.942.942 0 0 0-.013-1.33 22.679 22.679 0 0 1 15.882-38.87 22.745 22.745 0 0 1 15.107 5.77l-1.843.04a.935.935 0 0 0 .022 1.87h.023l4.06-.09a.934.934 0 0 0 .915-.96Z" transform="translate(-222.906 -1011.09)" style="fill:#a3bbc8;fill-rule:evenodd"/>
    <path d="M263.984 1044.59a9.815 9.815 0 1 1-9.8 9.82 9.811 9.811 0 0 1 9.8-9.82Z" transform="translate(-222.906 -1011.09)" style="opacity:.34;fill:#a3bbc8;fill-rule:evenodd"/>
</svg></svg>