<svg xmlns="http://www.w3.org/2000/svg" viewBox="0 0 512 512" fill="none" aria-hidden="true">
  <path
    fill-rule="evenodd"
    clip-rule="evenodd"
    d="M79 64H433A36 36 0 0 1 469 100V171H43V100A36 36 0 0 1 79 64Z
       M96 64H181V90.5A26.5 26.5 0 0 1 154.5 117H122.5A26.5 26.5 0 0 1 96 90.5V64Z
       M331 64H416V90.5A26.5 26.5 0 0 1 389.5 117H357.5A26.5 26.5 0 0 1 331 90.5V64Z"
    fill="currentColor"
  />

  <rect x="117" y="32" width="43" height="64" rx="21.5" fill="currentColor" />
  <rect x="352" y="32" width="43" height="64" rx="21.5" fill="currentColor" />

  <path
    fill-rule="evenodd"
    clip-rule="evenodd"
    d="M43 192H469V437A43 43 0 0 1 426 480H86A43 43 0 0 1 43 437V192Z
       M106 244A20 20 0 0 1 126 224H152A20 20 0 0 1 172 244V270A20 20 0 0 1 152 290H126A20 20 0 0 1 106 270V244Z
       M223 244A20 20 0 0 1 243 224H269A20 20 0 0 1 289 244V270A20 20 0 0 1 269 290H243A20 20 0 0 1 223 270V244Z
       M340 244A20 20 0 0 1 360 224H386A20 20 0 0 1 406 244V270A20 20 0 0 1 386 290H360A20 20 0 0 1 340 270V244Z
       M106 362A20 20 0 0 1 126 342H152A20 20 0 0 1 172 362V388A20 20 0 0 1 152 408H126A20 20 0 0 1 106 388V362Z
       M223 362A20 20 0 0 1 243 342H269A20 20 0 0 1 289 362V388A20 20 0 0 1 269 408H243A20 20 0 0 1 223 388V362Z
       M340 362A20 20 0 0 1 360 342H386A20 20 0 0 1 406 362V388A20 20 0 0 1 386 408H360A20 20 0 0 1 340 388V362Z"
    fill="currentColor"
  />
</svg>
