<svg xmlns="http://www.w3.org/2000/svg" width="16" height="16" viewBox="0 0 16 16" fill="currentColor">
  <path fill-rule="evenodd" d="M 0 0 L 0 0.969 L 0.969 0.969 L 1 1.969 L 1.969 1.969 L 2 2.969 L 3 3 L 3 5.969 L 4 6 L 4 10.969 L 5 11 L 5 11.969 L 4 12 L 3.969 13 L 3 13 L 3 15.969 L 6.969 15.969 L 7 14.969 L 8.969 14.969 L 9 15.969 L 14.969 15.969 L 15 14.969 L 15.969 14.969 L 15.969 10 L 14.969 10 L 14.969 11.969 L 13.969 12 L 13.969 14.969 L 12 14.969 L 11.969 12 L 8 12 L 7.969 14.969 L 6 14.969 L 5.969 12 L 5 12 L 5 11 L 6 10.969 L 6 11 L 13.969 11 L 14 10 L 15 10 L 15 6.969 L 14 6.969 L 13.969 3 L 4 3 L 3.969 1.969 L 2.969 1.969 L 2 0.969 L 1 0.969 L 0.969 0 L 0 0 Z M 4.969 4 L 13.969 3.969 L 14 6.969 L 9 7 L 8.969 8 L 6 8 L 5.969 7 L 4.969 6.969 Z"/>
</svg>
