<svg width="18" height="16" viewBox="0 0 18 16" fill="none" xmlns="http://www.w3.org/2000/svg">
<path fill-rule="evenodd" clip-rule="evenodd" d="M8.9298 15.5233C8.8346 15.5233 8.7393 15.5053 8.6504 15.467C8.297 15.3174 0 11.7175 0 4.7074C0.0912 2.0576 2.207 0 4.8175 0C6.561 0 8.0836 0.918 8.9298 2.3099C9.7765 0.918 11.2992 0 13.042 0C15.6514 0 17.7672 2.0576 17.859 4.6835C17.859 11.7175 9.562 15.3174 9.2097 15.467C9.1203 15.5053 9.025 15.5233 8.9298 15.5233ZM4.8175 1.385C2.9712 1.385 1.4745 2.8547 1.4097 4.7313C1.4101 10.1384 7.5346 13.3937 8.9298 14.0657C10.3251 13.3937 16.45 10.1357 16.45 4.7074C16.3845 2.8547 14.887 1.385 13.042 1.385C11.197 1.385 9.6998 2.8547 9.6342 4.7313C9.6217 5.1038 9.3094 5.4002 8.9298 5.4002C8.5494 5.4002 8.2379 5.1038 8.2252 4.7313C8.1604 2.8547 6.6636 1.385 4.8175 1.385Z" fill="#243F4D"/>
</svg>
