<svg xmlns="http://www.w3.org/2000/svg" width="15.28" height="15.281" viewBox="0 0 15.28 15.281">
  <defs>
    <style>
      .cls-1 {
        fill: #243f4d;
        fill-rule: evenodd;
      }
    </style>
  </defs>
  <path id="icon" class="cls-1" d="M1547.7,72.076a0.617,0.617,0,0,1,.75.484,2.585,2.585,0,0,0,.78,1.489,3.039,3.039,0,0,0,1.49.777,0.635,0.635,0,0,1,.49.743,0.649,0.649,0,0,1-.72.515,4.212,4.212,0,0,1-2.14-1.131,4.166,4.166,0,0,1-1.13-2.135A0.6,0.6,0,0,1,1547.7,72.076Zm3.28-6.08a6.267,6.267,0,0,1,6.28,6.256,6.137,6.137,0,0,1-.57,2.6l2.34,2.036c1.7,1.746.74,3.266,0.29,3.717-0.42.453-1.99,1.414-3.73-.292l-2.06-2.35A6.261,6.261,0,1,1,1550.98,66Zm5.55,13.516a1.352,1.352,0,0,0,1.88.226,1.313,1.313,0,0,0-.23-1.874l-2.16-1.88a6.222,6.222,0,0,1-1.37,1.34Zm-5.55-2.312a4.948,4.948,0,1,0-4.97-4.948A4.962,4.962,0,0,0,1550.98,77.2Z" transform="translate(-1544.72 -66)"/>
</svg>
